<svg xmlns="http://www.w3.org/2000/svg" xmlns:xlink="http://www.w3.org/1999/xlink" width="500" zoomAndPan="magnify" viewBox="0 0 375 374.999991" height="500" preserveAspectRatio="xMidYMid meet" version="1.0"><defs><clipPath id="4fbe193dfb"><path d="M 112.5 157.25 L 262.5 157.25 L 262.5 218 L 112.5 218 Z M 112.5 157.25 " clip-rule="nonzero"/></clipPath></defs><g clip-path="url(#4fbe193dfb)"><path fill="#000000" d="M 125.371094 205.726562 L 125.371094 192.535156 L 142.507812 192.535156 C 144.441406 192.535156 146.121094 193.210938 147.382812 194.386719 C 148.640625 195.5625 149.398438 197.15625 149.398438 199.089844 C 149.398438 200.9375 148.640625 202.617188 147.382812 203.796875 C 146.121094 204.972656 144.441406 205.726562 142.507812 205.726562 Z M 125.371094 181.949219 L 125.371094 169.265625 L 139.738281 169.265625 C 141.585938 169.265625 143.179688 169.9375 144.355469 171.027344 C 145.535156 172.121094 146.207031 173.71875 146.207031 175.566406 C 146.207031 177.414062 145.535156 179.011719 144.355469 180.101562 C 143.179688 181.277344 141.585938 181.949219 139.738281 181.949219 Z M 262.234375 187.496094 C 262.234375 186.65625 262.234375 185.816406 262.148438 184.976562 C 262.066406 184.136719 261.980469 183.296875 261.8125 182.453125 L 238.289062 182.453125 L 234.757812 188.085938 L 231.230469 193.714844 L 249.292969 193.714844 C 248.203125 197.324219 246.1875 200.519531 243.328125 202.789062 C 240.558594 205.054688 237.027344 206.316406 232.910156 206.316406 C 227.785156 206.316406 223.25 204.214844 219.972656 200.769531 C 216.695312 197.324219 214.679688 192.621094 214.679688 187.496094 C 214.679688 182.453125 216.695312 177.835938 220.054688 174.390625 C 223.417969 171.027344 228.039062 168.929688 233.164062 168.929688 C 235.433594 168.929688 237.449219 169.265625 239.378906 169.9375 C 241.3125 170.609375 242.992188 171.53125 244.589844 172.710938 L 247.699219 167.667969 L 250.890625 162.628906 C 248.453125 160.945312 245.765625 159.601562 242.824219 158.679688 C 239.882812 157.753906 236.691406 157.25 233.246094 157.25 C 228.710938 157.25 224.59375 158.089844 220.980469 159.601562 C 217.367188 161.113281 214.175781 163.300781 211.488281 165.988281 C 205.101562 172.371094 203.253906 178.925781 201.992188 184.890625 C 200.734375 190.855469 199.976562 196.316406 195.609375 200.6875 C 193.757812 202.535156 191.742188 203.878906 189.558594 204.804688 C 187.375 205.726562 185.019531 206.230469 182.417969 206.230469 C 177.125 206.230469 172.417969 204.046875 168.972656 200.6875 C 165.53125 197.242188 163.429688 192.621094 163.429688 187.496094 C 163.429688 182.539062 165.53125 177.917969 168.972656 174.472656 C 172.417969 171.027344 177.125 168.929688 182.417969 168.84375 C 184.601562 168.84375 186.703125 169.179688 188.550781 169.851562 C 190.398438 170.441406 192.164062 171.363281 193.675781 172.542969 L 196.867188 167.5 L 200.058594 162.460938 C 197.625 160.777344 194.933594 159.433594 191.996094 158.59375 C 188.96875 157.671875 185.777344 157.25 182.417969 157.25 C 177.207031 157.25 172.335938 158.511719 168.050781 160.695312 C 163.765625 162.878906 160.152344 166.070312 157.464844 169.851562 C 156.371094 166.574219 154.1875 163.71875 151.164062 161.703125 C 148.054688 159.6875 144.1875 158.511719 139.90625 158.511719 L 112.765625 158.511719 L 112.765625 216.480469 L 142.675781 216.480469 C 146.457031 216.480469 149.820312 215.558594 152.589844 214.046875 C 155.363281 212.53125 157.632812 210.265625 159.144531 207.660156 C 161.917969 210.683594 165.277344 213.207031 169.140625 214.96875 C 173.007812 216.734375 177.292969 217.65625 181.914062 217.65625 C 187.375 217.65625 192.332031 216.398438 196.617188 214.128906 C 200.902344 211.859375 204.511719 208.585938 207.285156 204.636719 C 209.972656 208.585938 213.585938 211.859375 217.871094 214.128906 C 222.15625 216.398438 227.199219 217.65625 232.660156 217.65625 C 240.976562 217.65625 248.371094 214.296875 253.664062 208.753906 C 259.039062 203.375 262.234375 195.8125 262.234375 187.496094 " fill-opacity="1" fill-rule="nonzero"/></g></svg>