<svg xmlns="http://www.w3.org/2000/svg" xmlns:xlink="http://www.w3.org/1999/xlink" width="1366" zoomAndPan="magnify" viewBox="0 0 1024.5 576" height="768" preserveAspectRatio="xMidYMid meet" version="1.0"><defs><clipPath id="7c52032154"><path d="M 393 325 L 489 325 L 489 402.992188 L 393 402.992188 Z M 393 325 " clip-rule="nonzero"/></clipPath></defs><path fill="#fae155" d="M 421.976562 196.890625 C 422.625 186.3125 425.371094 181.714844 433.25 178.019531 C 441.726562 174.042969 455.097656 175.890625 470.824219 183.21875 C 477.597656 186.375 478.289062 186.4375 490.160156 185.039062 C 505.945312 183.175781 526.261719 183.179688 540.832031 185.054688 C 551.851562 186.472656 552.570312 186.402344 559.363281 183.234375 C 581.6875 172.832031 599.316406 173.515625 605.703125 185.023438 C 608.890625 190.765625 609.480469 205.675781 607.011719 217.96875 C 605.644531 224.785156 605.789062 225.636719 609.085938 230.109375 C 632.304688 261.582031 615.574219 312.589844 575.792969 331.628906 C 572.75 333.085938 570.179688 333.988281 568.09375 334.722656 C 561.671875 336.976562 559.726562 337.660156 562.085938 348.039062 C 563.222656 353.03125 564.589844 365.441406 565.128906 375.625 C 566.101562 394.023438 566.085938 394.152344 562.578125 397.910156 C 557.800781 403.015625 550.917969 403.101562 546.257812 398.113281 C 543.214844 394.859375 542.917969 393.320312 542.917969 380.773438 C 542.917969 362.222656 540.710938 349.894531 535.488281 339.332031 C 529.28125 326.761719 533.878906 322.074219 548.082031 319.261719 C 567.820312 315.351562 583.242188 304.148438 591.832031 287.460938 C 600.003906 271.597656 601.234375 249.679688 586.460938 236.347656 C 582.257812 231.753906 581.96875 227.597656 584.96875 215.054688 C 586.085938 210.367188 587.027344 204.320312 587.054688 201.613281 C 587.09375 197.34375 586.675781 196.695312 583.820312 196.695312 C 582.015625 196.695312 575.117188 199.109375 568.496094 202.0625 L 557.925781 206.773438 C 556.96875 207.207031 555.890625 207.367188 554.828125 207.253906 C 527.953125 204.421875 502.414062 204.375 475.40625 207.269531 C 474.34375 207.382812 473.261719 207.21875 472.300781 206.789062 L 461.734375 202.074219 C 455.113281 199.117188 448.21875 196.699219 446.410156 196.699219 C 442.238281 196.699219 442.175781 199.535156 445.980469 216.367188 C 448.304688 226.648438 449.867188 228.9375 443.148438 237.15625 C 433.082031 249.480469 430.570312 264.78125 435.96875 280.859375 C 442.769531 301.121094 459.429688 314.804688 482.855469 319.371094 C 496.976562 322.121094 500.667969 325.714844 495.273438 340.609375 C 491.03125 352.328125 488.34375 355.347656 482.175781 355.347656 C 473.875 355.347656 468.679688 348.738281 471.539062 341.816406 C 472.800781 338.769531 472.421875 338.445312 464.652344 335.835938 C 440.917969 327.875 422.765625 310.035156 414.464844 286.515625 C 408.054688 268.335938 410.875 244.671875 421.164062 230.371094 C 424.667969 225.5 424.722656 225.085938 423.089844 215.765625 C 422.164062 210.488281 421.664062 201.992188 421.976562 196.890625 Z M 421.976562 196.890625 " fill-opacity="1" fill-rule="nonzero"/><g clip-path="url(#7c52032154)"><path fill="#fae155" d="M 413.6875 329.878906 C 410.269531 325.160156 403.335938 323.882812 398.207031 327.03125 C 393.078125 330.179688 391.691406 336.550781 395.109375 341.269531 C 397.636719 344.753906 400.660156 347.613281 403.222656 349.972656 C 403.691406 350.40625 404.15625 350.828125 404.601562 351.238281 C 406.75 353.203125 408.648438 354.933594 410.554688 356.992188 C 414.769531 361.542969 418.972656 367.671875 421.363281 378.660156 C 422.425781 383.558594 426.253906 386.191406 428.375 387.347656 C 430.675781 388.597656 433.183594 389.332031 435.253906 389.8125 C 439.480469 390.792969 444.613281 391.300781 449.480469 391.601562 C 454.828125 391.925781 460.621094 392.03125 465.800781 392.0625 C 465.808594 397.726562 470.800781 402.324219 476.964844 402.324219 C 483.128906 402.324219 488.128906 397.726562 488.128906 392.058594 L 488.128906 381.792969 C 488.128906 376.121094 483.128906 371.523438 476.964844 371.523438 C 475.914062 371.523438 474.773438 371.53125 473.570312 371.535156 C 467.015625 371.550781 458.480469 371.574219 450.957031 371.117188 C 447.332031 370.894531 444.351562 370.582031 442.164062 370.203125 C 438.796875 358.046875 433.359375 349.957031 427.554688 343.691406 C 424.984375 340.921875 422.332031 338.496094 420.171875 336.527344 C 419.769531 336.160156 419.378906 335.808594 419.011719 335.46875 C 416.519531 333.160156 414.886719 331.527344 413.6875 329.878906 Z M 413.6875 329.878906 " fill-opacity="1" fill-rule="nonzero"/></g></svg>