<svg xmlns="http://www.w3.org/2000/svg" xmlns:xlink="http://www.w3.org/1999/xlink" width="1366" zoomAndPan="magnify" viewBox="0 0 1024.5 576" height="768" preserveAspectRatio="xMidYMid meet" version="1.0"><defs><clipPath id="79f0043baf"><path d="M 447 256 L 471 256 L 471 357 L 447 357 Z M 447 256 " clip-rule="nonzero"/></clipPath><clipPath id="bb140994d9"><path d="M 396.855469 210.339844 L 396.855469 365.660156 C 396.855469 386.363281 413.636719 403.144531 434.339844 403.144531 L 589.664062 403.144531 C 610.363281 403.144531 627.144531 386.363281 627.144531 365.660156 L 627.144531 210.339844 C 627.144531 200.398438 623.195312 190.863281 616.164062 183.835938 C 609.136719 176.804688 599.601562 172.855469 589.664062 172.855469 L 434.339844 172.855469 C 413.636719 172.855469 396.855469 189.636719 396.855469 210.339844 Z M 396.855469 210.339844 " clip-rule="nonzero"/></clipPath><clipPath id="d96e58ec28"><path d="M 445 219 L 473 219 L 473 248 L 445 248 Z M 445 219 " clip-rule="nonzero"/></clipPath><clipPath id="54afa1a798"><path d="M 396.855469 210.339844 L 396.855469 365.660156 C 396.855469 386.363281 413.636719 403.144531 434.339844 403.144531 L 589.664062 403.144531 C 610.363281 403.144531 627.144531 386.363281 627.144531 365.660156 L 627.144531 210.339844 C 627.144531 200.398438 623.195312 190.863281 616.164062 183.835938 C 609.136719 176.804688 599.601562 172.855469 589.664062 172.855469 L 434.339844 172.855469 C 413.636719 172.855469 396.855469 189.636719 396.855469 210.339844 Z M 396.855469 210.339844 " clip-rule="nonzero"/></clipPath><clipPath id="b6c3308bb6"><path d="M 491 254 L 579 254 L 579 357 L 491 357 Z M 491 254 " clip-rule="nonzero"/></clipPath><clipPath id="ec18b3d0eb"><path d="M 396.855469 210.339844 L 396.855469 365.660156 C 396.855469 386.363281 413.636719 403.144531 434.339844 403.144531 L 589.664062 403.144531 C 610.363281 403.144531 627.144531 386.363281 627.144531 365.660156 L 627.144531 210.339844 C 627.144531 200.398438 623.195312 190.863281 616.164062 183.835938 C 609.136719 176.804688 599.601562 172.855469 589.664062 172.855469 L 434.339844 172.855469 C 413.636719 172.855469 396.855469 189.636719 396.855469 210.339844 Z M 396.855469 210.339844 " clip-rule="nonzero"/></clipPath><clipPath id="3479f2b75c"><path d="M 396.855469 172.855469 L 626.992188 172.855469 L 626.992188 402.992188 L 396.855469 402.992188 Z M 396.855469 172.855469 " clip-rule="nonzero"/></clipPath><clipPath id="9aa47fa3de"><path d="M 396.855469 210.339844 L 396.855469 365.660156 C 396.855469 386.363281 413.636719 403.144531 434.339844 403.144531 L 589.664062 403.144531 C 610.363281 403.144531 627.144531 386.363281 627.144531 365.660156 L 627.144531 210.339844 C 627.144531 200.398438 623.195312 190.863281 616.164062 183.835938 C 609.136719 176.804688 599.601562 172.855469 589.664062 172.855469 L 434.339844 172.855469 C 413.636719 172.855469 396.855469 189.636719 396.855469 210.339844 Z M 396.855469 210.339844 " clip-rule="nonzero"/></clipPath></defs><g clip-path="url(#79f0043baf)"><g clip-path="url(#bb140994d9)"><path fill="#55f6fa" d="M 450.539062 256.371094 L 467.574219 256.371094 C 468.007812 256.371094 468.421875 256.453125 468.824219 256.621094 C 469.222656 256.785156 469.578125 257.023438 469.882812 257.328125 C 470.1875 257.636719 470.425781 257.988281 470.589844 258.386719 C 470.757812 258.789062 470.839844 259.207031 470.839844 259.636719 L 470.839844 353.324219 C 470.839844 353.753906 470.757812 354.171875 470.589844 354.574219 C 470.425781 354.972656 470.1875 355.324219 469.882812 355.632812 C 469.578125 355.9375 469.222656 356.175781 468.824219 356.339844 C 468.421875 356.507812 468.007812 356.589844 467.574219 356.589844 L 450.539062 356.589844 C 450.105469 356.589844 449.691406 356.507812 449.289062 356.339844 C 448.890625 356.175781 448.539062 355.9375 448.230469 355.632812 C 447.925781 355.324219 447.6875 354.972656 447.523438 354.574219 C 447.355469 354.171875 447.273438 353.753906 447.273438 353.324219 L 447.273438 259.636719 C 447.273438 259.207031 447.355469 258.789062 447.523438 258.386719 C 447.6875 257.988281 447.925781 257.636719 448.230469 257.328125 C 448.539062 257.023438 448.890625 256.785156 449.289062 256.621094 C 449.691406 256.453125 450.105469 256.371094 450.539062 256.371094 Z M 450.539062 256.371094 " fill-opacity="1" fill-rule="nonzero"/></g></g><g clip-path="url(#d96e58ec28)"><g clip-path="url(#54afa1a798)"><path fill="#55f6fa" d="M 472.777344 233.257812 C 472.75 225.226562 466.988281 219.402344 459.058594 219.402344 C 451.125 219.402344 445.144531 225.382812 445.144531 233.316406 C 445.144531 237.003906 446.492188 240.4375 448.933594 242.980469 C 451.445312 245.59375 454.90625 247.035156 458.671875 247.035156 C 462.84375 247.035156 466.570312 245.5625 469.160156 242.878906 C 471.589844 240.367188 472.871094 236.972656 472.777344 233.316406 C 472.777344 233.296875 472.777344 233.285156 472.777344 233.257812 Z M 472.777344 233.257812 " fill-opacity="1" fill-rule="nonzero"/></g></g><g clip-path="url(#b6c3308bb6)"><g clip-path="url(#ec18b3d0eb)"><path fill="#55f6fa" d="M 566.070312 262.960938 C 557.589844 255.375 547.652344 254.242188 542.480469 254.242188 C 534.753906 254.242188 527.394531 256.308594 521.191406 260.214844 C 518.476562 261.921875 516.027344 263.945312 513.839844 266.285156 L 513.414062 259.429688 C 513.386719 259.011719 513.285156 258.617188 513.109375 258.242188 C 512.929688 257.863281 512.691406 257.535156 512.386719 257.25 C 512.082031 256.964844 511.738281 256.746094 511.351562 256.59375 C 510.964844 256.441406 510.5625 256.363281 510.148438 256.367188 L 495.058594 256.367188 C 494.832031 256.367188 494.609375 256.386719 494.390625 256.433594 C 494.171875 256.480469 493.957031 256.546875 493.75 256.636719 C 493.546875 256.726562 493.351562 256.839844 493.167969 256.96875 C 492.984375 257.097656 492.816406 257.246094 492.664062 257.410156 C 492.511719 257.574219 492.375 257.753906 492.261719 257.945312 C 492.144531 258.140625 492.050781 258.339844 491.976562 258.554688 C 491.902344 258.765625 491.847656 258.984375 491.820312 259.207031 C 491.789062 259.429688 491.785156 259.652344 491.800781 259.875 C 492.335938 267.027344 492.566406 274.539062 492.566406 284.988281 L 492.566406 353.324219 C 492.566406 353.753906 492.648438 354.171875 492.8125 354.574219 C 492.980469 354.972656 493.214844 355.324219 493.523438 355.632812 C 493.828125 355.9375 494.183594 356.175781 494.582031 356.339844 C 494.980469 356.507812 495.398438 356.589844 495.832031 356.589844 L 512.867188 356.589844 C 513.300781 356.589844 513.714844 356.507812 514.117188 356.339844 C 514.515625 356.175781 514.871094 355.9375 515.175781 355.632812 C 515.480469 355.324219 515.71875 354.972656 515.882812 354.574219 C 516.050781 354.171875 516.132812 353.753906 516.132812 353.324219 L 516.132812 296.996094 C 516.132812 294.347656 516.484375 291.863281 517.097656 290.175781 C 517.117188 290.125 517.132812 290.070312 517.148438 290.011719 C 519.453125 282.5 526.441406 274.902344 536.867188 274.902344 C 543.320312 274.902344 547.953125 277.109375 551.027344 281.648438 C 553.804688 285.75 555.273438 291.859375 555.273438 299.316406 L 555.273438 353.324219 C 555.273438 353.753906 555.359375 354.171875 555.523438 354.574219 C 555.6875 354.972656 555.925781 355.324219 556.230469 355.632812 C 556.539062 355.9375 556.890625 356.175781 557.292969 356.339844 C 557.691406 356.507812 558.109375 356.589844 558.542969 356.589844 L 575.574219 356.589844 C 576.007812 356.589844 576.425781 356.507812 576.824219 356.339844 C 577.226562 356.175781 577.578125 355.9375 577.882812 355.632812 C 578.191406 355.324219 578.425781 354.972656 578.59375 354.574219 C 578.757812 354.171875 578.839844 353.753906 578.839844 353.324219 L 578.839844 297.382812 C 578.839844 289.414062 577.636719 282.347656 575.261719 276.386719 C 573.128906 271.027344 570.035156 266.507812 566.070312 262.960938 Z M 566.070312 262.960938 " fill-opacity="1" fill-rule="nonzero"/></g></g><g clip-path="url(#3479f2b75c)"><g clip-path="url(#9aa47fa3de)"><path fill="#55f6fa" d="M 597.15625 172.855469 L 426.835938 172.855469 C 410.304688 172.855469 396.855469 186.304688 396.855469 202.835938 L 396.855469 373.15625 C 396.855469 389.683594 410.304688 403.132812 426.835938 403.132812 L 597.15625 403.132812 C 613.683594 403.132812 627.132812 389.683594 627.132812 373.15625 L 627.132812 202.835938 C 627.132812 186.304688 613.683594 172.855469 597.15625 172.855469 Z M 606.085938 204.285156 L 606.085938 371.703125 C 606.082031 372.386719 606.015625 373.058594 605.882812 373.726562 C 605.75 374.394531 605.550781 375.046875 605.292969 375.675781 C 605.03125 376.304688 604.710938 376.902344 604.332031 377.46875 C 603.953125 378.035156 603.523438 378.558594 603.039062 379.039062 C 602.558594 379.523438 602.035156 379.953125 601.46875 380.332031 C 600.902344 380.710938 600.304688 381.03125 599.675781 381.292969 C 599.046875 381.550781 598.398438 381.75 597.726562 381.882812 C 597.058594 382.015625 596.386719 382.082031 595.703125 382.085938 L 428.285156 382.085938 C 427.605469 382.082031 426.929688 382.015625 426.261719 381.882812 C 425.59375 381.75 424.945312 381.550781 424.316406 381.292969 C 423.6875 381.03125 423.089844 380.710938 422.523438 380.332031 C 421.957031 379.953125 421.433594 379.523438 420.949219 379.039062 C 420.46875 378.558594 420.039062 378.035156 419.660156 377.46875 C 419.28125 376.902344 418.960938 376.304688 418.699219 375.675781 C 418.4375 375.046875 418.242188 374.394531 418.109375 373.726562 C 417.972656 373.058594 417.90625 372.386719 417.90625 371.703125 L 417.90625 204.285156 C 417.90625 203.605469 417.972656 202.929688 418.109375 202.261719 C 418.242188 201.59375 418.4375 200.945312 418.699219 200.316406 C 418.960938 199.6875 419.28125 199.089844 419.660156 198.523438 C 420.039062 197.957031 420.46875 197.433594 420.949219 196.949219 C 421.433594 196.46875 421.957031 196.039062 422.523438 195.660156 C 423.089844 195.28125 423.6875 194.960938 424.316406 194.699219 C 424.945312 194.4375 425.59375 194.242188 426.261719 194.109375 C 426.929688 193.972656 427.605469 193.90625 428.285156 193.90625 L 595.703125 193.90625 C 596.386719 193.90625 597.058594 193.972656 597.726562 194.109375 C 598.398438 194.242188 599.046875 194.4375 599.675781 194.699219 C 600.304688 194.960938 600.902344 195.28125 601.46875 195.660156 C 602.035156 196.039062 602.558594 196.46875 603.039062 196.949219 C 603.523438 197.433594 603.953125 197.957031 604.332031 198.523438 C 604.710938 199.089844 605.03125 199.6875 605.292969 200.316406 C 605.550781 200.945312 605.75 201.59375 605.882812 202.261719 C 606.015625 202.929688 606.082031 203.605469 606.085938 204.285156 Z M 606.085938 204.285156 " fill-opacity="1" fill-rule="nonzero"/></g></g></svg>