<svg xmlns="http://www.w3.org/2000/svg" xmlns:xlink="http://www.w3.org/1999/xlink" width="500" zoomAndPan="magnify" viewBox="0 0 375 374.999991" height="500" preserveAspectRatio="xMidYMid meet" version="1.0"><defs><clipPath id="a679eed3de"><path d="M 112.5 176.25 L 262.5 176.25 L 262.5 198.75 L 112.5 198.75 Z M 112.5 176.25 " clip-rule="nonzero"/></clipPath></defs><g clip-path="url(#a679eed3de)"><path fill="#000000" d="M 204.582031 188.800781 L 203.324219 188.574219 C 202.070312 188.351562 201.039062 188.039062 201.039062 186.78125 C 201.039062 185.660156 202.160156 185.167969 203.550781 185.167969 C 205.609375 185.167969 207.449219 186.15625 207.628906 186.246094 L 208.792969 183.152344 C 208.347656 182.925781 206.507812 181.894531 203.59375 181.894531 C 200.902344 181.894531 197.675781 183.332031 197.675781 186.917969 C 197.675781 190.144531 199.917969 191.175781 202.070312 191.535156 L 203.550781 191.804688 C 204.984375 192.074219 205.789062 192.609375 205.789062 193.597656 C 205.789062 194.851562 204.667969 195.433594 202.964844 195.433594 C 200.230469 195.433594 198.617188 194.582031 198.167969 194.402344 L 196.914062 197.40625 C 197.316406 197.632812 199.15625 198.707031 202.832031 198.707031 C 206.375 198.707031 209.199219 196.914062 209.199219 193.550781 C 209.152344 190.414062 207.089844 189.25 204.582031 188.800781 M 215.382812 176.292969 L 212.023438 178.175781 L 212.023438 182.210938 L 210.273438 182.210938 L 210.273438 185.484375 L 212.023438 185.484375 L 212.023438 192.609375 C 212.023438 195.660156 213.230469 198.347656 217.535156 198.347656 L 218.878906 198.347656 L 218.878906 195.078125 L 218.386719 195.078125 C 216.28125 195.078125 215.382812 193.820312 215.382812 192.117188 L 215.382812 185.527344 L 219.238281 185.527344 L 219.238281 182.253906 L 215.382812 182.253906 L 215.382812 176.292969 M 241.519531 185.257812 C 242.820312 185.257812 244.164062 185.886719 244.566406 187.320312 L 247.617188 186.15625 C 246.765625 183.0625 243.984375 181.894531 241.519531 181.894531 C 237.125 181.894531 235.332031 184.71875 235.332031 187.457031 L 235.332031 193.148438 C 235.332031 195.882812 237.125 198.707031 241.519531 198.707031 C 243.984375 198.707031 246.765625 197.542969 247.617188 194.449219 L 244.566406 193.28125 C 244.164062 194.761719 242.820312 195.390625 241.519531 195.390625 C 239.234375 195.390625 238.652344 194.089844 238.652344 192.65625 L 238.652344 187.992188 C 238.652344 186.558594 239.234375 185.257812 241.519531 185.257812 M 255.820312 189.472656 L 262.097656 182.210938 L 257.972656 182.210938 L 252.59375 188.53125 L 252.59375 176.292969 L 249.230469 176.292969 L 249.230469 198.394531 L 252.59375 198.394531 L 252.59375 193.238281 L 253.667969 191.9375 L 258.464844 198.347656 L 262.457031 198.347656 L 255.820312 189.472656 M 228.609375 185.75 L 225.113281 185.75 C 224.574219 185.75 224.125 186.199219 224.125 186.78125 L 224.125 190.683594 L 220.675781 190.683594 L 220.675781 186.78125 C 220.628906 184.316406 222.644531 182.253906 225.113281 182.210938 L 228.609375 182.210938 L 228.609375 185.75 M 225.785156 194.851562 L 229.238281 194.851562 C 229.773438 194.851562 230.222656 194.402344 230.222656 193.820312 L 230.222656 189.921875 L 233.675781 189.921875 L 233.675781 193.820312 C 233.71875 196.285156 231.703125 198.347656 229.238281 198.347656 L 225.785156 198.347656 L 225.785156 194.851562 M 169.03125 182.210938 L 172.886719 182.210938 L 172.886719 185.527344 L 169.03125 185.527344 L 169.03125 192.164062 C 169.03125 193.867188 169.925781 195.121094 172.035156 195.121094 L 172.527344 195.121094 L 172.527344 198.394531 L 171.183594 198.394531 C 166.878906 198.394531 165.667969 195.660156 165.667969 192.65625 L 165.667969 185.527344 L 160.019531 185.527344 L 160.019531 192.164062 C 160.019531 193.867188 160.914062 195.121094 163.023438 195.121094 L 163.515625 195.121094 L 163.515625 198.394531 L 162.171875 198.394531 C 157.867188 198.394531 156.65625 195.660156 156.65625 192.65625 L 156.65625 185.527344 L 154.953125 185.527344 L 154.953125 182.210938 L 156.65625 182.210938 L 156.65625 178.175781 L 160.019531 176.292969 L 160.019531 182.210938 L 165.625 182.210938 L 165.625 178.175781 L 168.984375 176.292969 L 168.984375 182.210938 M 132.898438 181.894531 C 131.820312 181.894531 130.746094 182.121094 129.804688 182.523438 L 129.804688 176.292969 L 126.441406 176.292969 L 126.441406 198.394531 L 129.804688 198.394531 L 129.804688 185.75 C 130.476562 185.304688 131.464844 185.035156 132.40625 185.035156 C 134.511719 185.035156 135.496094 186.246094 135.496094 187.992188 L 135.496094 198.347656 L 138.859375 198.347656 L 138.859375 187.589844 C 138.816406 184.316406 136.527344 181.894531 132.898438 181.894531 M 149.84375 195.164062 C 149.214844 195.523438 148.410156 195.703125 147.601562 195.703125 C 145.089844 195.703125 144.148438 194.402344 144.148438 192.609375 L 144.148438 182.210938 L 140.789062 182.210938 L 140.789062 192.65625 C 140.789062 196.734375 143.074219 198.664062 147.152344 198.664062 C 149.082031 198.664062 151.277344 198.167969 153.160156 197.316406 L 153.160156 182.210938 L 149.796875 182.210938 L 149.84375 195.164062 M 120.210938 188.800781 L 118.957031 188.574219 C 117.699219 188.351562 116.667969 188.039062 116.667969 186.78125 C 116.667969 185.660156 117.789062 185.167969 119.179688 185.167969 C 121.242188 185.167969 123.078125 186.15625 123.304688 186.246094 L 124.425781 183.152344 C 123.976562 182.925781 122.136719 181.894531 119.222656 181.894531 C 116.535156 181.894531 113.308594 183.332031 113.308594 186.917969 C 113.308594 190.144531 115.546875 191.175781 117.699219 191.535156 L 119.179688 191.804688 C 120.613281 192.074219 121.421875 192.609375 121.421875 193.597656 C 121.421875 194.851562 120.300781 195.433594 118.597656 195.433594 C 115.863281 195.433594 114.25 194.582031 113.800781 194.402344 L 112.5 197.40625 C 112.902344 197.632812 114.742188 198.707031 118.417969 198.707031 C 121.960938 198.707031 124.785156 196.914062 124.785156 193.550781 C 124.738281 190.414062 122.722656 189.25 120.210938 188.800781 M 183.332031 189.070312 L 177.683594 189.070312 L 177.683594 187.902344 C 177.683594 186.601562 178.308594 185.167969 180.507812 185.167969 C 182.613281 185.167969 183.332031 186.515625 183.332031 187.8125 Z M 186.691406 187.457031 C 186.691406 184.496094 184.496094 181.894531 180.550781 181.894531 C 176.070312 181.894531 174.363281 184.765625 174.363281 187.457031 L 174.363281 192.835938 C 174.363281 196.554688 176.695312 198.707031 180.550781 198.707031 C 184.003906 198.707031 185.75 196.691406 186.289062 195.433594 L 183.464844 193.6875 C 183.242188 194.402344 182.121094 195.433594 180.597656 195.433594 C 178.535156 195.433594 177.726562 194.269531 177.726562 192.746094 L 177.726562 191.847656 L 186.691406 191.847656 C 186.691406 191.894531 186.691406 187.457031 186.691406 187.457031 Z M 188.84375 187.457031 L 188.84375 198.394531 L 192.207031 198.394531 L 192.207031 187.769531 C 192.207031 186.828125 192.699219 185.257812 195.164062 185.257812 C 195.570312 185.257812 196.421875 185.394531 196.691406 185.4375 L 196.691406 182.074219 C 196.152344 181.941406 195.570312 181.894531 194.988281 181.894531 C 190.726562 181.894531 188.84375 184.675781 188.84375 187.457031 " fill-opacity="1" fill-rule="evenodd"/></g></svg>