<svg xmlns="http://www.w3.org/2000/svg" xmlns:xlink="http://www.w3.org/1999/xlink" width="500" zoomAndPan="magnify" viewBox="0 0 375 374.999991" height="500" preserveAspectRatio="xMidYMid meet" version="1.0"><defs><clipPath id="1ec321c7cf"><path d="M 119.5 112.5 L 255.25 112.5 L 255.25 262.5 L 119.5 262.5 Z M 119.5 112.5 " clip-rule="nonzero"/></clipPath></defs><path fill="#ff8c02" d="M 123.625 201.957031 C 122.445312 189.109375 122.226562 176.039062 124.941406 163.425781 C 127.660156 150.8125 133.507812 138.609375 143.027344 129.902344 C 152.253906 121.457031 164.46875 116.726562 176.871094 115.105469 C 193.417969 112.941406 210.960938 116.3125 224.507812 126.050781 C 235.570312 134.007812 243.535156 145.851562 247.949219 158.742188 C 252.363281 171.632812 253.367188 185.53125 252.140625 199.101562 C 251.941406 201.328125 251.589844 203.742188 249.96875 205.28125 C 248.710938 206.480469 246.929688 206.90625 245.234375 207.273438 C 205.199219 215.90625 163.21875 215.398438 123.625 201.957031 Z M 123.625 201.957031 " fill-opacity="1" fill-rule="nonzero"/><path fill="#ffac47" d="M 238.359375 183.632812 C 238.359375 185.300781 238.277344 186.964844 238.117188 188.621094 C 237.953125 190.28125 237.707031 191.929688 237.382812 193.5625 C 237.058594 195.199219 236.652344 196.8125 236.167969 198.410156 C 235.683594 200.003906 235.125 201.574219 234.484375 203.113281 C 233.847656 204.652344 233.136719 206.160156 232.351562 207.628906 C 231.5625 209.097656 230.707031 210.527344 229.78125 211.914062 C 228.855469 213.300781 227.863281 214.636719 226.804688 215.925781 C 225.75 217.214844 224.628906 218.449219 223.453125 219.628906 C 222.273438 220.804688 221.039062 221.925781 219.75 222.980469 C 218.460938 224.039062 217.125 225.03125 215.738281 225.957031 C 214.351562 226.882812 212.921875 227.742188 211.453125 228.527344 C 209.980469 229.3125 208.476562 230.023438 206.9375 230.664062 C 205.398438 231.300781 203.828125 231.859375 202.234375 232.34375 C 200.636719 232.828125 199.023438 233.234375 197.386719 233.558594 C 195.753906 233.882812 194.105469 234.128906 192.445312 234.292969 C 190.785156 234.457031 189.125 234.539062 187.457031 234.539062 C 185.789062 234.539062 184.125 234.457031 182.46875 234.292969 C 180.808594 234.128906 179.160156 233.882812 177.527344 233.558594 C 175.890625 233.234375 174.273438 232.828125 172.679688 232.34375 C 171.085938 231.859375 169.515625 231.300781 167.976562 230.664062 C 166.4375 230.023438 164.929688 229.3125 163.460938 228.527344 C 161.988281 227.742188 160.5625 226.882812 159.175781 225.957031 C 157.789062 225.03125 156.453125 224.039062 155.164062 222.980469 C 153.875 221.925781 152.640625 220.804688 151.460938 219.628906 C 150.28125 218.449219 149.164062 217.214844 148.105469 215.925781 C 147.050781 214.636719 146.058594 213.300781 145.132812 211.914062 C 144.203125 210.527344 143.347656 209.097656 142.5625 207.628906 C 141.777344 206.160156 141.066406 204.652344 140.425781 203.113281 C 139.789062 201.574219 139.226562 200.003906 138.746094 198.410156 C 138.261719 196.8125 137.855469 195.199219 137.53125 193.5625 C 137.207031 191.929688 136.960938 190.28125 136.796875 188.621094 C 136.632812 186.964844 136.550781 185.300781 136.550781 183.632812 C 136.550781 181.964844 136.632812 180.300781 136.796875 178.644531 C 136.960938 176.984375 137.207031 175.335938 137.53125 173.703125 C 137.855469 172.066406 138.261719 170.453125 138.746094 168.855469 C 139.226562 167.261719 139.789062 165.691406 140.425781 164.152344 C 141.066406 162.613281 141.777344 161.105469 142.5625 159.636719 C 143.347656 158.167969 144.203125 156.738281 145.132812 155.351562 C 146.058594 153.964844 147.050781 152.628906 148.105469 151.339844 C 149.164062 150.050781 150.28125 148.816406 151.460938 147.636719 C 152.640625 146.460938 153.875 145.339844 155.164062 144.285156 C 156.453125 143.226562 157.789062 142.234375 159.175781 141.308594 C 160.5625 140.382812 161.988281 139.523438 163.460938 138.738281 C 164.929688 137.953125 166.4375 137.242188 167.976562 136.601562 C 169.515625 135.964844 171.085938 135.40625 172.679688 134.921875 C 174.273438 134.4375 175.890625 134.03125 177.527344 133.707031 C 179.160156 133.382812 180.808594 133.136719 182.46875 132.972656 C 184.125 132.808594 185.789062 132.726562 187.457031 132.726562 C 189.125 132.726562 190.785156 132.808594 192.445312 132.972656 C 194.105469 133.136719 195.753906 133.382812 197.386719 133.707031 C 199.023438 134.03125 200.636719 134.4375 202.234375 134.921875 C 203.828125 135.40625 205.398438 135.964844 206.9375 136.601562 C 208.476562 137.242188 209.980469 137.953125 211.453125 138.738281 C 212.921875 139.523438 214.351562 140.382812 215.738281 141.308594 C 217.125 142.234375 218.460938 143.226562 219.75 144.285156 C 221.039062 145.339844 222.273438 146.460938 223.453125 147.636719 C 224.628906 148.816406 225.75 150.050781 226.804688 151.339844 C 227.863281 152.628906 228.855469 153.964844 229.78125 155.351562 C 230.707031 156.738281 231.5625 158.167969 232.351562 159.636719 C 233.136719 161.105469 233.847656 162.613281 234.484375 164.152344 C 235.125 165.691406 235.683594 167.261719 236.167969 168.855469 C 236.652344 170.453125 237.058594 172.066406 237.382812 173.703125 C 237.707031 175.335938 237.953125 176.984375 238.117188 178.644531 C 238.277344 180.300781 238.359375 181.964844 238.359375 183.632812 Z M 238.359375 183.632812 " fill-opacity="1" fill-rule="nonzero"/><path fill="#ffcd8f" d="M 223.777344 183.632812 C 223.777344 184.824219 223.71875 186.007812 223.605469 187.191406 C 223.488281 188.375 223.3125 189.550781 223.082031 190.71875 C 222.847656 191.886719 222.558594 193.039062 222.214844 194.175781 C 221.871094 195.316406 221.46875 196.433594 221.015625 197.53125 C 220.558594 198.632812 220.050781 199.707031 219.488281 200.753906 C 218.929688 201.804688 218.316406 202.824219 217.65625 203.8125 C 216.996094 204.800781 216.289062 205.753906 215.535156 206.675781 C 214.777344 207.59375 213.980469 208.476562 213.140625 209.316406 C 212.300781 210.15625 211.417969 210.957031 210.5 211.710938 C 209.578125 212.464844 208.625 213.171875 207.636719 213.832031 C 206.648438 214.496094 205.628906 215.105469 204.578125 215.664062 C 203.53125 216.226562 202.457031 216.734375 201.355469 217.191406 C 200.257812 217.644531 199.136719 218.046875 198 218.390625 C 196.863281 218.734375 195.710938 219.023438 194.542969 219.257812 C 193.375 219.488281 192.199219 219.664062 191.015625 219.78125 C 189.832031 219.898438 188.644531 219.953125 187.457031 219.953125 C 186.265625 219.953125 185.082031 219.898438 183.894531 219.78125 C 182.710938 219.664062 181.539062 219.488281 180.371094 219.257812 C 179.203125 219.023438 178.050781 218.734375 176.914062 218.390625 C 175.773438 218.046875 174.65625 217.644531 173.558594 217.191406 C 172.457031 216.734375 171.382812 216.226562 170.335938 215.664062 C 169.285156 215.105469 168.265625 214.496094 167.277344 213.832031 C 166.289062 213.171875 165.332031 212.464844 164.414062 211.710938 C 163.496094 210.957031 162.613281 210.15625 161.773438 209.316406 C 160.933594 208.476562 160.132812 207.59375 159.378906 206.675781 C 158.625 205.753906 157.917969 204.800781 157.257812 203.8125 C 156.59375 202.824219 155.984375 201.804688 155.421875 200.753906 C 154.863281 199.707031 154.355469 198.632812 153.898438 197.53125 C 153.445312 196.433594 153.042969 195.316406 152.699219 194.175781 C 152.351562 193.039062 152.066406 191.886719 151.832031 190.71875 C 151.601562 189.550781 151.425781 188.375 151.308594 187.191406 C 151.191406 186.007812 151.132812 184.824219 151.132812 183.632812 C 151.132812 182.441406 151.191406 181.257812 151.308594 180.074219 C 151.425781 178.890625 151.601562 177.714844 151.832031 176.546875 C 152.066406 175.378906 152.351562 174.226562 152.699219 173.089844 C 153.042969 171.949219 153.445312 170.832031 153.898438 169.734375 C 154.355469 168.632812 154.863281 167.558594 155.421875 166.511719 C 155.984375 165.460938 156.59375 164.441406 157.257812 163.453125 C 157.917969 162.464844 158.625 161.511719 159.378906 160.589844 C 160.132812 159.671875 160.933594 158.789062 161.773438 157.949219 C 162.613281 157.109375 163.496094 156.308594 164.414062 155.554688 C 165.332031 154.800781 166.289062 154.09375 167.277344 153.433594 C 168.265625 152.769531 169.285156 152.160156 170.335938 151.601562 C 171.382812 151.039062 172.457031 150.53125 173.558594 150.074219 C 174.65625 149.621094 175.773438 149.21875 176.914062 148.875 C 178.050781 148.53125 179.203125 148.242188 180.371094 148.007812 C 181.539062 147.777344 182.710938 147.601562 183.894531 147.484375 C 185.082031 147.367188 186.265625 147.3125 187.457031 147.3125 C 188.644531 147.3125 189.832031 147.367188 191.015625 147.484375 C 192.199219 147.601562 193.375 147.777344 194.542969 148.007812 C 195.710938 148.242188 196.863281 148.53125 198 148.875 C 199.136719 149.21875 200.257812 149.621094 201.355469 150.074219 C 202.457031 150.53125 203.53125 151.039062 204.578125 151.601562 C 205.628906 152.160156 206.648438 152.769531 207.636719 153.433594 C 208.625 154.09375 209.578125 154.800781 210.5 155.554688 C 211.417969 156.308594 212.300781 157.109375 213.140625 157.949219 C 213.980469 158.789062 214.777344 159.671875 215.535156 160.589844 C 216.289062 161.511719 216.996094 162.464844 217.65625 163.453125 C 218.316406 164.441406 218.929688 165.460938 219.488281 166.511719 C 220.050781 167.558594 220.558594 168.632812 221.015625 169.734375 C 221.46875 170.832031 221.871094 171.949219 222.214844 173.089844 C 222.558594 174.226562 222.847656 175.378906 223.082031 176.546875 C 223.3125 177.714844 223.488281 178.890625 223.605469 180.074219 C 223.71875 181.257812 223.777344 182.441406 223.777344 183.632812 Z M 223.777344 183.632812 " fill-opacity="1" fill-rule="nonzero"/><g clip-path="url(#1ec321c7cf)"><path fill="#003934" d="M 250.140625 154.023438 C 246.71875 145.925781 241.816406 138.65625 235.574219 132.414062 C 229.332031 126.171875 222.058594 121.269531 213.964844 117.84375 C 205.578125 114.296875 196.675781 112.5 187.496094 112.5 C 178.320312 112.5 169.417969 114.296875 161.035156 117.84375 C 152.9375 121.265625 145.667969 126.167969 139.425781 132.410156 C 133.183594 138.652344 128.28125 145.925781 124.855469 154.019531 C 121.308594 162.40625 119.511719 171.308594 119.511719 180.484375 L 119.511719 247.167969 C 119.511719 255.621094 126.386719 262.5 134.84375 262.5 L 240.152344 262.5 C 248.609375 262.5 255.484375 255.625 255.484375 247.167969 L 255.484375 180.484375 C 255.484375 171.308594 253.6875 162.40625 250.140625 154.023438 Z M 130.875 156.566406 C 133.972656 149.25 138.402344 142.679688 144.046875 137.035156 C 149.691406 131.390625 156.261719 126.957031 163.578125 123.863281 C 171.152344 120.660156 179.199219 119.035156 187.496094 119.035156 C 195.796875 119.035156 203.84375 120.660156 211.417969 123.863281 C 218.734375 126.960938 225.304688 131.390625 230.949219 137.035156 C 236.59375 142.679688 241.027344 149.25 244.121094 156.566406 C 247.324219 164.140625 248.949219 172.1875 248.949219 180.484375 L 248.949219 191.78125 C 248.027344 190.40625 247.09375 189.027344 247.09375 189.027344 L 240.722656 181.664062 L 228.472656 170.128906 L 223.976562 165.894531 L 215.730469 175.410156 L 209.71875 179.375 L 194.5625 164.121094 L 191.703125 158.722656 L 185.054688 154.324219 L 173.53125 146.695312 L 156.6875 162.160156 L 146.5 167.589844 L 143.53125 177.90625 L 138.1875 181.90625 C 138.1875 181.90625 131.035156 189.03125 126.046875 193.972656 L 126.046875 180.484375 C 126.046875 172.1875 127.671875 164.140625 130.875 156.566406 Z M 130.875 156.566406 " fill-opacity="1" fill-rule="nonzero"/></g><path fill="#fffeff" d="M 241.667969 197.898438 L 248.722656 200.550781 L 239.816406 193.328125 L 245.695312 194.851562 L 244.714844 191.914062 L 238.402344 187.664062 L 242.648438 188.535156 L 234.261719 178.84375 L 227.457031 172.109375 L 224.136719 168.828125 L 225.121094 175.457031 L 225.441406 177.644531 L 228.492188 184.070312 L 222.613281 180.695312 L 221.304688 187.988281 L 226.53125 191.910156 L 220.652344 189.40625 L 220.765625 193.980469 L 217.167969 196.15625 L 219.347656 196.378906 L 222.507812 200.40625 L 218.585938 198.554688 L 216.191406 201.277344 L 216 201.96875 L 215.9375 202.195312 C 215.9375 202.195312 248.9375 202.734375 248.949219 202.683594 Z M 189.089844 160.734375 L 173.441406 149.246094 L 171.363281 159.425781 L 175.957031 168.394531 L 169.722656 161.9375 L 167.316406 167.847656 L 169.175781 180.976562 L 164.910156 173.535156 L 163.8125 176.160156 L 164.140625 179.332031 L 162.0625 177.257812 L 159.21875 181.085938 L 154.621094 193.011719 L 139.742188 199.90625 L 138.792969 202.195312 L 161.203125 202.195312 C 161.28125 202.109375 161.355469 202.027344 161.425781 201.949219 C 161.097656 202.027344 160.773438 202.121094 160.441406 202.074219 C 160.921875 201.769531 161.425781 201.53125 161.855469 201.050781 C 161.652344 201.132812 161.457031 201.210938 161.265625 201.289062 C 161.261719 201.277344 161.253906 201.265625 161.25 201.253906 C 161.835938 200.835938 162.386719 200.355469 162.769531 199.523438 C 162.28125 200.035156 161.792969 200.480469 161.214844 200.765625 C 161.277344 200.667969 161.320312 200.59375 161.363281 200.519531 C 161.160156 200.722656 160.96875 200.960938 160.707031 201.085938 C 160.757812 200.960938 160.800781 200.859375 160.839844 200.753906 C 160.625 200.96875 160.410156 201.183594 160.140625 201.328125 C 160.191406 201.203125 160.230469 201.109375 160.261719 201.027344 C 160.039062 201.136719 159.816406 201.242188 159.589844 201.355469 C 159.585938 201.339844 159.582031 201.328125 159.578125 201.316406 C 159.632812 201.242188 159.6875 201.167969 159.746094 201.085938 C 159.484375 201.058594 159.234375 201.03125 158.984375 201.003906 C 158.984375 200.992188 158.984375 200.980469 158.984375 200.964844 C 159.25 200.894531 159.519531 200.828125 159.785156 200.757812 C 159.785156 200.746094 159.78125 200.738281 159.78125 200.726562 C 159.679688 200.703125 159.574219 200.679688 159.472656 200.65625 C 159.472656 200.652344 159.472656 200.644531 159.472656 200.636719 C 159.6875 200.566406 159.902344 200.503906 160.113281 200.421875 C 160.328125 200.335938 160.539062 200.226562 160.75 200.128906 C 160.75 200.117188 160.746094 200.101562 160.746094 200.089844 L 160.152344 200.089844 C 160.585938 199.914062 161.015625 199.757812 161.382812 199.371094 C 161.164062 199.457031 160.941406 199.542969 160.707031 199.636719 C 160.742188 199.542969 160.765625 199.46875 160.800781 199.367188 C 160.539062 199.589844 160.277344 199.699219 159.96875 199.710938 C 160.066406 199.613281 160.140625 199.53125 160.21875 199.449219 C 159.894531 199.574219 159.570312 199.578125 159.246094 199.464844 C 159.136719 199.429688 159.035156 199.359375 158.929688 199.292969 C 159.484375 199.164062 160.046875 199.179688 160.585938 198.875 C 160.316406 198.828125 160.0625 198.789062 159.808594 198.746094 C 159.808594 198.734375 159.808594 198.722656 159.808594 198.710938 C 160.410156 198.597656 161.035156 198.644531 161.613281 198.261719 C 161.4375 198.238281 161.269531 198.21875 161.105469 198.199219 C 161.101562 198.191406 161.101562 198.175781 161.101562 198.164062 C 161.660156 198.007812 162.175781 197.707031 162.59375 197.140625 C 162.160156 197.457031 161.699219 197.660156 161.203125 197.789062 C 161.292969 197.679688 161.367188 197.582031 161.453125 197.472656 C 161.214844 197.585938 160.988281 197.695312 160.765625 197.800781 C 160.757812 197.785156 160.753906 197.765625 160.746094 197.753906 C 160.820312 197.660156 160.894531 197.570312 160.96875 197.480469 C 160.964844 197.46875 160.957031 197.457031 160.949219 197.445312 C 160.691406 197.578125 160.429688 197.683594 160.152344 197.648438 C 160.230469 197.601562 160.308594 197.554688 160.390625 197.507812 C 160.160156 197.515625 159.933594 197.488281 159.71875 197.367188 C 159.832031 197.34375 159.945312 197.320312 160.074219 197.296875 C 159.820312 197.175781 159.582031 197.050781 159.378906 196.796875 C 160.054688 196.804688 160.722656 196.890625 161.371094 196.558594 C 161.179688 196.53125 160.992188 196.5 160.800781 196.472656 C 161.617188 196.371094 162.40625 196.152344 163.054688 195.378906 C 162.71875 195.601562 162.378906 195.828125 162.003906 195.933594 C 162.03125 195.878906 162.050781 195.832031 162.074219 195.789062 C 161.878906 195.894531 161.6875 196 161.476562 196.117188 C 161.574219 195.921875 161.660156 195.753906 161.742188 195.585938 C 161.738281 195.582031 161.734375 195.578125 161.730469 195.574219 C 161.539062 195.703125 161.351562 195.832031 161.164062 195.960938 C 161.160156 195.953125 161.15625 195.945312 161.152344 195.9375 C 161.289062 195.738281 161.425781 195.539062 161.558594 195.34375 C 161.554688 195.332031 161.546875 195.320312 161.542969 195.308594 C 161.269531 195.519531 160.976562 195.640625 160.65625 195.671875 C 160.765625 195.53125 160.871094 195.390625 160.984375 195.246094 C 160.804688 195.285156 160.636719 195.324219 160.46875 195.363281 C 160.464844 195.351562 160.460938 195.34375 160.453125 195.332031 C 160.515625 195.257812 160.574219 195.179688 160.632812 195.105469 C 160.632812 195.09375 160.632812 195.082031 160.628906 195.070312 L 160.128906 195.070312 C 160.128906 195.0625 160.128906 195.050781 160.128906 195.042969 C 160.273438 194.988281 160.417969 194.933594 160.582031 194.871094 C 160.328125 194.753906 160.109375 194.617188 159.933594 194.359375 C 160.660156 194.597656 161.378906 194.617188 162.085938 194.289062 C 162.085938 194.277344 162.085938 194.265625 162.085938 194.253906 C 161.980469 194.230469 161.875 194.203125 161.765625 194.179688 C 162.238281 194.023438 162.710938 193.890625 163.109375 193.484375 C 162.820312 193.597656 162.535156 193.714844 162.25 193.832031 C 162.246094 193.824219 162.246094 193.816406 162.242188 193.808594 C 162.445312 193.578125 162.644531 193.347656 162.847656 193.121094 L 162.832031 193.082031 C 162.117188 193.632812 161.375 193.917969 160.546875 193.507812 C 161.105469 193.414062 161.636719 193.292969 162.144531 192.949219 C 161.894531 192.902344 161.65625 192.859375 161.417969 192.8125 C 161.417969 192.796875 161.417969 192.78125 161.417969 192.761719 C 161.976562 192.660156 162.546875 192.625 163.054688 192.144531 C 162.863281 192.191406 162.695312 192.230469 162.519531 192.273438 C 162.59375 192.117188 162.660156 191.972656 162.726562 191.832031 C 162.722656 191.824219 162.71875 191.820312 162.710938 191.8125 C 162.589844 191.914062 162.464844 192.011719 162.332031 192.121094 C 162.34375 192.046875 162.355469 191.992188 162.371094 191.914062 C 162.1875 192.078125 161.996094 192.144531 161.777344 192.160156 C 161.859375 192.066406 161.929688 191.988281 161.996094 191.910156 L 161.988281 191.886719 C 161.894531 191.90625 161.796875 191.921875 161.703125 191.9375 C 161.703125 191.929688 161.699219 191.921875 161.695312 191.914062 C 161.71875 191.890625 161.746094 191.871094 161.769531 191.847656 C 161.765625 191.835938 161.761719 191.824219 161.757812 191.808594 C 161.578125 191.84375 161.398438 191.878906 161.21875 191.914062 C 161.21875 191.90625 161.214844 191.894531 161.210938 191.886719 C 161.316406 191.773438 161.425781 191.65625 161.546875 191.53125 C 161.375 191.546875 161.21875 191.558594 161.066406 191.574219 L 161.058594 191.53125 C 161.097656 191.480469 161.140625 191.429688 161.183594 191.371094 C 161.023438 191.269531 160.871094 191.175781 160.722656 191.078125 C 160.722656 191.070312 160.722656 191.0625 160.722656 191.054688 C 160.820312 191.066406 160.914062 191.074219 161.007812 191.089844 C 161.488281 191.160156 161.964844 191.136719 162.441406 190.976562 C 162.691406 190.890625 162.941406 190.71875 163.066406 190.554688 C 162.839844 190.582031 162.605469 190.613281 162.367188 190.640625 C 162.367188 190.636719 162.367188 190.628906 162.367188 190.625 C 162.582031 190.523438 162.804688 190.429688 163.015625 190.3125 C 163.234375 190.191406 163.410156 189.984375 163.570312 189.71875 C 163.324219 189.859375 163.09375 189.988281 162.859375 190.121094 C 162.859375 190.113281 162.855469 190.105469 162.855469 190.101562 C 162.898438 190.011719 162.941406 189.925781 162.984375 189.839844 C 162.839844 189.949219 162.707031 190.078125 162.5625 190.152344 C 162.414062 190.230469 162.257812 190.253906 162.101562 190.277344 C 162.222656 190.164062 162.34375 190.050781 162.464844 189.9375 C 162.457031 189.917969 162.453125 189.902344 162.449219 189.882812 C 162.125 190.050781 161.800781 190.023438 161.488281 189.90625 C 161.675781 189.800781 161.867188 189.695312 162.058594 189.589844 C 162.054688 189.578125 162.050781 189.566406 162.046875 189.554688 C 161.878906 189.492188 161.710938 189.429688 161.539062 189.367188 C 161.542969 189.355469 161.542969 189.339844 161.546875 189.324219 C 161.929688 189.273438 162.328125 189.3125 162.726562 189.113281 C 162.632812 189.085938 162.5625 189.0625 162.496094 189.039062 C 162.859375 188.914062 163.21875 188.789062 163.488281 188.382812 C 163.261719 188.472656 163.042969 188.558594 162.820312 188.644531 C 162.816406 188.628906 162.808594 188.613281 162.804688 188.597656 C 162.851562 188.539062 162.898438 188.484375 162.964844 188.402344 C 162.660156 188.464844 162.394531 188.414062 162.128906 188.167969 C 162.683594 188.09375 163.210938 187.984375 163.65625 187.464844 C 163.441406 187.515625 163.246094 187.566406 163.023438 187.621094 C 163.082031 187.523438 163.125 187.445312 163.167969 187.371094 L 162.644531 187.371094 C 162.707031 187.292969 162.753906 187.234375 162.820312 187.152344 C 162.59375 187.160156 162.414062 187.066406 162.234375 186.878906 C 162.445312 186.878906 162.636719 186.894531 162.824219 186.875 C 163.097656 186.847656 163.367188 186.753906 163.59375 186.515625 C 163.71875 186.386719 163.8125 186.222656 163.898438 186.03125 C 163.71875 186.109375 163.546875 186.179688 163.378906 186.25 C 163.375 186.242188 163.371094 186.234375 163.367188 186.226562 C 163.425781 186.15625 163.480469 186.082031 163.535156 186.007812 C 163.316406 186.082031 163.109375 186.058594 162.898438 185.9375 C 163.046875 185.871094 163.195312 185.820312 163.335938 185.742188 C 163.476562 185.660156 163.609375 185.550781 163.703125 185.386719 C 163.539062 185.375 163.371094 185.367188 163.203125 185.355469 C 163.203125 185.339844 163.203125 185.324219 163.199219 185.3125 C 163.464844 185.183594 163.726562 185.042969 163.894531 184.683594 C 163.765625 184.714844 163.640625 184.75 163.496094 184.792969 C 163.53125 184.722656 163.554688 184.679688 163.589844 184.617188 L 163.304688 184.617188 C 163.542969 184.449219 163.789062 184.328125 163.964844 183.996094 L 163.695312 183.996094 C 163.777344 183.875 163.847656 183.761719 163.9375 183.625 L 163.644531 183.625 C 163.875 183.425781 164.023438 183.179688 164.078125 182.8125 C 164 182.875 163.933594 182.929688 163.867188 182.988281 C 164.042969 182.472656 164.144531 181.929688 164.21875 181.375 C 164.289062 181.941406 164.375 182.503906 164.539062 183.042969 C 164.492188 182.996094 164.445312 182.949219 164.382812 182.886719 C 164.46875 183.28125 164.628906 183.554688 164.890625 183.757812 C 164.816406 183.773438 164.769531 183.78125 164.722656 183.785156 C 164.675781 183.789062 164.628906 183.789062 164.574219 183.789062 C 164.652344 183.996094 164.78125 184.109375 164.910156 184.222656 C 164.910156 184.234375 164.910156 184.25 164.90625 184.257812 C 164.789062 184.238281 164.671875 184.21875 164.550781 184.195312 C 164.605469 184.386719 164.695312 184.5625 164.816406 184.699219 C 164.9375 184.828125 165.070312 184.945312 165.203125 185.078125 C 165.007812 185.109375 164.828125 185.023438 164.652344 184.933594 C 164.644531 184.941406 164.640625 184.953125 164.632812 184.964844 C 164.738281 185.125 164.847656 185.28125 164.953125 185.445312 C 164.910156 185.441406 164.871094 185.4375 164.828125 185.429688 C 165.019531 185.664062 165.265625 185.707031 165.503906 185.828125 C 165.257812 185.992188 165.023438 186.011719 164.757812 185.894531 C 164.988281 186.285156 165.292969 186.375 165.605469 186.476562 C 165.460938 186.496094 165.316406 186.511719 165.171875 186.53125 L 165.167969 186.554688 C 165.375 186.617188 165.578125 186.679688 165.796875 186.746094 C 165.636719 186.859375 165.472656 186.859375 165.292969 186.882812 C 165.378906 186.972656 165.464844 187.0625 165.5625 187.167969 C 165.328125 187.199219 165.117188 187.132812 164.902344 187.007812 C 164.964844 187.105469 165.332031 187.519531 165.425781 187.539062 C 165.421875 187.550781 164.84375 187.386719 164.84375 187.386719 C 164.84375 187.386719 165.386719 187.886719 165.78125 187.96875 C 166.019531 188.015625 166.257812 188.070312 166.503906 188.125 C 166.410156 188.230469 166.175781 188.328125 165.960938 188.320312 C 165.777344 188.3125 165.59375 188.261719 165.40625 188.234375 C 165.613281 188.382812 165.828125 188.53125 166.035156 188.683594 C 165.851562 188.765625 165.628906 188.722656 165.179688 188.554688 C 165.253906 188.640625 165.328125 188.722656 165.40625 188.808594 C 165.394531 188.828125 165.382812 188.847656 165.371094 188.871094 C 165.179688 188.761719 164.988281 188.652344 164.8125 188.554688 C 164.863281 188.671875 164.980469 188.8125 165.152344 188.953125 C 165.5 189.226562 165.871094 189.371094 166.265625 189.40625 C 166.585938 189.429688 166.90625 189.417969 167.230469 189.421875 C 167.242188 189.421875 167.257812 189.425781 167.269531 189.425781 C 167.273438 189.4375 167.277344 189.445312 167.277344 189.457031 C 167.136719 189.539062 166.996094 189.621094 166.835938 189.714844 C 166.925781 189.769531 167.003906 189.8125 167.078125 189.859375 C 167.082031 189.867188 167.082031 189.878906 167.082031 189.890625 C 166.933594 189.917969 166.78125 189.941406 166.609375 189.972656 C 166.699219 190.027344 166.769531 190.078125 166.84375 190.128906 C 166.84375 190.136719 166.84375 190.144531 166.839844 190.15625 L 166.289062 190.15625 C 166.351562 190.242188 166.398438 190.300781 166.457031 190.378906 C 166.230469 190.363281 166.039062 190.292969 165.863281 190.128906 C 165.855469 190.136719 165.851562 190.148438 165.847656 190.160156 C 165.953125 190.308594 166.058594 190.453125 166.1875 190.628906 C 166.011719 190.613281 165.851562 190.613281 165.691406 190.582031 C 165.53125 190.550781 165.371094 190.492188 165.199219 190.441406 C 165.5625 190.808594 165.957031 191.054688 166.382812 191.179688 C 166.800781 191.304688 167.226562 191.382812 167.632812 191.476562 C 167.398438 191.609375 167.132812 191.632812 166.859375 191.660156 C 167.035156 191.789062 167.207031 191.917969 167.382812 192.050781 C 167.054688 192.070312 166.746094 191.984375 166.441406 191.820312 C 166.4375 191.832031 166.433594 191.84375 166.425781 191.855469 C 166.613281 192.058594 166.800781 192.261719 166.984375 192.464844 C 166.984375 192.476562 166.984375 192.484375 166.980469 192.496094 C 166.753906 192.414062 166.523438 192.332031 166.300781 192.25 C 166.328125 192.296875 166.367188 192.355469 166.414062 192.4375 C 166.058594 192.363281 165.753906 192.148438 165.441406 191.96875 C 165.4375 191.984375 165.429688 191.996094 165.425781 192.007812 C 165.578125 192.148438 165.734375 192.292969 165.890625 192.417969 C 166.316406 192.75 166.785156 192.921875 167.246094 193.105469 C 167.488281 193.203125 167.738281 193.277344 167.984375 193.363281 C 168 193.371094 168.015625 193.378906 168.050781 193.398438 C 167.609375 193.515625 167.1875 193.53125 166.742188 193.347656 C 166.804688 193.429688 166.847656 193.488281 166.890625 193.542969 C 166.886719 193.554688 166.882812 193.566406 166.878906 193.574219 C 166.75 193.503906 166.613281 193.429688 166.464844 193.351562 C 166.519531 193.445312 166.5625 193.523438 166.621094 193.621094 C 166.1875 193.507812 165.816406 193.238281 165.433594 192.992188 C 165.492188 193.070312 165.554688 193.160156 165.617188 193.230469 C 166.03125 193.691406 166.507812 193.949219 167.011719 194.117188 C 167.199219 194.179688 167.390625 194.238281 167.578125 194.296875 L 167.574219 194.332031 L 166.84375 194.332031 C 166.839844 194.347656 166.839844 194.359375 166.839844 194.375 C 167.425781 194.6875 168.046875 194.769531 168.667969 194.851562 C 168.421875 194.980469 168.167969 195.023438 167.902344 195.007812 C 167.945312 195.039062 167.996094 195.070312 168.042969 195.105469 C 168.042969 195.113281 168.042969 195.125 168.042969 195.136719 C 167.921875 195.144531 167.804688 195.152344 167.675781 195.164062 C 167.710938 195.21875 167.746094 195.269531 167.792969 195.355469 C 167.613281 195.28125 167.457031 195.222656 167.304688 195.160156 C 167.300781 195.167969 167.296875 195.171875 167.292969 195.183594 C 167.339844 195.242188 167.386719 195.304688 167.433594 195.363281 C 167.433594 195.371094 167.429688 195.382812 167.425781 195.394531 C 167.238281 195.320312 167.046875 195.246094 166.855469 195.171875 C 166.851562 195.179688 166.847656 195.183594 166.84375 195.1875 C 166.914062 195.289062 166.984375 195.390625 167.0625 195.5 C 166.925781 195.476562 166.785156 195.449219 166.648438 195.425781 C 166.644531 195.433594 166.640625 195.4375 166.636719 195.441406 C 166.714844 195.515625 166.789062 195.601562 166.871094 195.660156 C 167.234375 195.933594 167.625 196.074219 168.03125 196.144531 C 168.171875 196.167969 168.3125 196.195312 168.457031 196.246094 C 168.386719 196.265625 168.320312 196.289062 168.25 196.3125 C 168.25 196.320312 168.25 196.328125 168.25 196.335938 C 168.382812 196.371094 168.519531 196.402344 168.652344 196.433594 C 168.652344 196.445312 168.652344 196.457031 168.65625 196.46875 C 168.507812 196.46875 168.363281 196.480469 168.21875 196.464844 C 168.074219 196.457031 167.929688 196.421875 167.753906 196.394531 C 167.851562 196.507812 167.925781 196.597656 168 196.6875 C 168 196.699219 167.996094 196.710938 167.992188 196.722656 C 167.816406 196.660156 167.636719 196.601562 167.449219 196.535156 C 167.511719 196.605469 167.570312 196.671875 167.648438 196.753906 C 167.074219 196.71875 166.617188 196.347656 166.160156 195.988281 C 166.214844 196.179688 166.609375 196.625 166.925781 196.816406 C 167.230469 197 167.539062 197.15625 167.832031 197.316406 C 167.609375 197.28125 167.367188 197.238281 167.121094 197.199219 C 167.121094 197.207031 167.117188 197.214844 167.113281 197.21875 C 167.347656 197.355469 167.574219 197.515625 167.8125 197.621094 C 168.058594 197.730469 168.308594 197.800781 168.5625 197.859375 C 168.8125 197.917969 169.070312 197.9375 169.328125 198.003906 C 169.183594 198.074219 169.039062 198.148438 168.878906 198.226562 C 168.953125 198.285156 169.011719 198.335938 169.074219 198.386719 C 169.074219 198.394531 169.074219 198.402344 169.074219 198.410156 C 168.949219 198.398438 168.820312 198.382812 168.695312 198.371094 C 168.691406 198.378906 168.6875 198.386719 168.683594 198.394531 C 168.746094 198.464844 168.808594 198.535156 168.882812 198.621094 C 168.652344 198.621094 168.445312 198.539062 168.230469 198.460938 C 168.324219 198.5625 168.421875 198.660156 168.535156 198.78125 C 168.265625 198.773438 168.054688 198.609375 167.8125 198.460938 C 167.847656 198.535156 167.867188 198.582031 167.898438 198.648438 C 167.660156 198.558594 167.457031 198.414062 167.273438 198.199219 C 167.3125 198.285156 167.351562 198.367188 167.402344 198.46875 C 166.886719 198.230469 166.453125 197.816406 166.015625 197.417969 C 166.269531 197.847656 166.570312 198.191406 166.925781 198.425781 C 167.273438 198.65625 167.640625 198.832031 168 199.027344 L 167.402344 199.027344 C 168.0625 199.605469 168.804688 199.570312 169.523438 199.726562 C 169.472656 199.742188 169.421875 199.765625 169.367188 199.785156 C 169.3125 199.804688 169.253906 199.820312 169.195312 199.832031 C 169.136719 199.847656 169.082031 199.851562 169.019531 199.886719 C 169.140625 199.972656 169.265625 200.058594 169.402344 200.15625 L 168.933594 200.15625 C 169.007812 200.253906 169.0625 200.324219 169.117188 200.398438 C 168.972656 200.4375 168.859375 200.390625 168.429688 200.136719 C 168.492188 200.253906 168.554688 200.367188 168.617188 200.484375 C 168.613281 200.492188 168.609375 200.503906 168.609375 200.515625 C 168.433594 200.402344 168.257812 200.289062 168.078125 200.175781 C 168.140625 200.292969 168.207031 200.414062 168.269531 200.535156 L 168.257812 200.558594 C 168.136719 200.472656 168.007812 200.394531 167.886719 200.300781 C 167.765625 200.207031 167.648438 200.097656 167.519531 200.007812 C 167.578125 200.132812 167.636719 200.253906 167.703125 200.386719 C 167.308594 200.230469 166.96875 199.945312 166.628906 199.65625 C 167.300781 200.789062 168.230469 201.140625 169.210938 201.320312 C 169.210938 201.332031 169.210938 201.339844 169.210938 201.351562 C 169.089844 201.390625 168.96875 201.429688 168.847656 201.46875 C 168.726562 201.503906 168.605469 201.542969 168.484375 201.582031 C 168.484375 201.589844 168.484375 201.601562 168.484375 201.613281 C 168.578125 201.65625 168.675781 201.695312 168.769531 201.738281 C 168.640625 201.832031 168.464844 201.851562 168.035156 201.8125 C 168.132812 201.9375 168.222656 202.058594 168.3125 202.175781 C 168.308594 202.179688 168.308594 202.183594 168.304688 202.1875 L 173.550781 202.1875 C 173.613281 202.121094 173.671875 202.058594 173.730469 201.996094 C 173.417969 202.070312 173.113281 202.15625 172.800781 202.113281 C 173.253906 201.828125 173.726562 201.605469 174.128906 201.152344 C 173.9375 201.230469 173.753906 201.304688 173.574219 201.378906 C 173.566406 201.367188 173.5625 201.355469 173.558594 201.34375 C 174.109375 200.953125 174.625 200.5 174.988281 199.71875 C 174.527344 200.199219 174.066406 200.613281 173.523438 200.882812 C 173.582031 200.792969 173.625 200.722656 173.664062 200.652344 C 173.472656 200.84375 173.292969 201.066406 173.046875 201.1875 C 173.09375 201.070312 173.132812 200.96875 173.171875 200.871094 C 172.96875 201.078125 172.765625 201.277344 172.515625 201.410156 C 172.558594 201.296875 172.597656 201.207031 172.628906 201.132812 C 172.421875 201.234375 172.210938 201.335938 171.996094 201.4375 C 171.996094 201.425781 171.988281 201.414062 171.988281 201.402344 C 172.039062 201.332031 172.089844 201.265625 172.148438 201.1875 C 171.898438 201.160156 171.664062 201.136719 171.429688 201.109375 C 171.429688 201.097656 171.429688 201.085938 171.429688 201.074219 C 171.683594 201.007812 171.933594 200.945312 172.183594 200.878906 C 172.183594 200.871094 172.179688 200.859375 172.179688 200.851562 C 172.082031 200.828125 171.988281 200.808594 171.890625 200.785156 C 171.890625 200.777344 171.890625 200.773438 171.890625 200.765625 C 172.089844 200.699219 172.292969 200.644531 172.492188 200.566406 C 172.695312 200.484375 172.890625 200.382812 173.089844 200.289062 C 173.089844 200.277344 173.085938 200.265625 173.085938 200.253906 L 172.53125 200.253906 C 172.933594 200.089844 173.339844 199.941406 173.683594 199.578125 C 173.476562 199.660156 173.273438 199.742188 173.050781 199.832031 C 173.082031 199.742188 173.105469 199.671875 173.140625 199.578125 C 172.894531 199.785156 172.648438 199.886719 172.359375 199.898438 C 172.449219 199.804688 172.523438 199.730469 172.59375 199.652344 C 172.289062 199.769531 171.984375 199.777344 171.679688 199.667969 C 171.578125 199.632812 171.480469 199.570312 171.382812 199.503906 C 171.902344 199.386719 172.429688 199.398438 172.941406 199.109375 C 172.683594 199.070312 172.445312 199.03125 172.207031 198.992188 C 172.207031 198.980469 172.207031 198.96875 172.210938 198.957031 C 172.777344 198.851562 173.359375 198.894531 173.902344 198.535156 C 173.738281 198.515625 173.582031 198.496094 173.425781 198.480469 C 173.421875 198.46875 173.421875 198.457031 173.421875 198.445312 C 173.949219 198.296875 174.429688 198.015625 174.824219 197.480469 C 174.414062 197.78125 173.980469 197.96875 173.519531 198.09375 C 173.601562 197.988281 173.671875 197.898438 173.753906 197.796875 C 173.527344 197.902344 173.316406 198 173.105469 198.101562 C 173.101562 198.085938 173.097656 198.074219 173.089844 198.058594 C 173.160156 197.972656 173.230469 197.886719 173.300781 197.800781 C 173.292969 197.789062 173.289062 197.777344 173.28125 197.765625 C 173.039062 197.894531 172.792969 197.992188 172.53125 197.957031 C 172.605469 197.914062 172.679688 197.871094 172.753906 197.828125 C 172.539062 197.832031 172.328125 197.804688 172.125 197.691406 C 172.230469 197.671875 172.335938 197.648438 172.457031 197.625 C 172.21875 197.515625 171.996094 197.394531 171.804688 197.15625 C 172.4375 197.164062 173.066406 197.246094 173.675781 196.933594 C 173.496094 196.90625 173.320312 196.878906 173.140625 196.851562 C 173.90625 196.753906 174.644531 196.550781 175.253906 195.824219 C 174.941406 196.03125 174.625 196.246094 174.269531 196.34375 C 174.292969 196.292969 174.316406 196.25 174.335938 196.210938 C 174.152344 196.308594 173.972656 196.410156 173.773438 196.519531 C 173.867188 196.332031 173.945312 196.175781 174.023438 196.019531 C 174.019531 196.015625 174.015625 196.011719 174.011719 196.007812 C 173.832031 196.128906 173.65625 196.25 173.480469 196.371094 C 173.476562 196.363281 173.476562 196.355469 173.46875 196.347656 C 173.597656 196.164062 173.722656 195.976562 173.851562 195.789062 C 173.847656 195.78125 173.84375 195.769531 173.835938 195.757812 C 173.582031 195.957031 173.304688 196.074219 173.007812 196.101562 C 173.105469 195.96875 173.207031 195.839844 173.3125 195.703125 C 173.144531 195.738281 172.988281 195.773438 172.828125 195.8125 C 172.824219 195.800781 172.820312 195.792969 172.816406 195.785156 C 172.871094 195.710938 172.925781 195.640625 172.984375 195.566406 C 172.984375 195.558594 172.984375 195.546875 172.980469 195.539062 L 172.511719 195.539062 C 172.511719 195.527344 172.511719 195.519531 172.511719 195.511719 C 172.644531 195.460938 172.78125 195.40625 172.9375 195.347656 C 172.699219 195.238281 172.492188 195.109375 172.328125 194.867188 C 173.011719 195.09375 173.6875 195.109375 174.351562 194.800781 C 174.351562 194.792969 174.351562 194.78125 174.351562 194.769531 C 174.25 194.746094 174.148438 194.722656 174.050781 194.699219 C 174.492188 194.554688 174.9375 194.429688 175.308594 194.046875 C 175.042969 194.15625 174.773438 194.265625 174.503906 194.375 C 174.5 194.367188 174.5 194.359375 174.5 194.351562 C 174.6875 194.136719 174.875 193.921875 175.066406 193.707031 L 175.050781 193.667969 C 174.378906 194.183594 173.679688 194.453125 172.90625 194.070312 C 173.429688 193.980469 173.929688 193.867188 174.40625 193.542969 C 174.167969 193.5 173.945312 193.457031 173.726562 193.417969 C 173.726562 193.402344 173.726562 193.386719 173.726562 193.371094 C 174.25 193.273438 174.785156 193.242188 175.261719 192.789062 C 175.082031 192.832031 174.925781 192.871094 174.757812 192.910156 C 174.828125 192.765625 174.890625 192.632812 174.953125 192.496094 C 174.949219 192.492188 174.941406 192.484375 174.9375 192.480469 C 174.824219 192.574219 174.707031 192.664062 174.578125 192.769531 C 174.59375 192.699219 174.601562 192.648438 174.617188 192.574219 C 174.441406 192.730469 174.265625 192.792969 174.058594 192.804688 C 174.136719 192.71875 174.199219 192.640625 174.265625 192.566406 L 174.257812 192.546875 C 174.167969 192.5625 174.078125 192.582031 173.988281 192.597656 C 173.984375 192.589844 173.980469 192.582031 173.980469 192.574219 C 174.003906 192.550781 174.027344 192.53125 174.050781 192.511719 C 174.046875 192.5 174.042969 192.484375 174.039062 192.476562 C 173.871094 192.507812 173.703125 192.539062 173.535156 192.574219 C 173.53125 192.5625 173.527344 192.554688 173.523438 192.546875 C 173.625 192.441406 173.730469 192.332031 173.84375 192.214844 C 173.679688 192.226562 173.535156 192.242188 173.390625 192.253906 L 173.382812 192.214844 C 173.421875 192.164062 173.460938 192.117188 173.503906 192.0625 C 173.351562 191.96875 173.210938 191.878906 173.066406 191.789062 C 173.066406 191.78125 173.066406 191.773438 173.070312 191.765625 C 173.15625 191.777344 173.246094 191.785156 173.332031 191.800781 C 173.785156 191.863281 174.234375 191.84375 174.679688 191.691406 C 174.914062 191.613281 175.148438 191.449219 175.269531 191.296875 C 175.054688 191.320312 174.832031 191.351562 174.609375 191.375 C 174.609375 191.371094 174.609375 191.367188 174.609375 191.363281 C 174.8125 191.265625 175.019531 191.183594 175.21875 191.070312 C 175.425781 190.957031 175.589844 190.761719 175.742188 190.511719 C 175.511719 190.640625 175.292969 190.765625 175.074219 190.890625 C 175.074219 190.882812 175.070312 190.875 175.066406 190.871094 C 175.109375 190.789062 175.152344 190.707031 175.191406 190.625 C 175.054688 190.726562 174.929688 190.847656 174.792969 190.921875 C 174.65625 190.992188 174.507812 191.015625 174.359375 191.039062 C 174.472656 190.929688 174.585938 190.824219 174.699219 190.71875 C 174.695312 190.699219 174.691406 190.683594 174.6875 190.667969 C 174.382812 190.824219 174.078125 190.800781 173.78125 190.6875 C 173.960938 190.589844 174.136719 190.492188 174.320312 190.390625 C 174.316406 190.378906 174.3125 190.371094 174.308594 190.359375 C 174.152344 190.300781 173.992188 190.242188 173.832031 190.183594 C 173.835938 190.171875 173.835938 190.15625 173.839844 190.144531 C 174.203125 190.09375 174.574219 190.132812 174.945312 189.945312 C 174.859375 189.917969 174.796875 189.898438 174.730469 189.875 C 175.074219 189.757812 175.410156 189.640625 175.664062 189.261719 C 175.449219 189.34375 175.242188 189.425781 175.035156 189.503906 C 175.03125 189.488281 175.023438 189.476562 175.019531 189.460938 C 175.0625 189.410156 175.109375 189.355469 175.171875 189.277344 C 174.882812 189.335938 174.632812 189.289062 174.386719 189.058594 C 174.90625 188.988281 175.398438 188.886719 175.820312 188.394531 C 175.617188 188.445312 175.433594 188.492188 175.226562 188.546875 C 175.28125 188.453125 175.320312 188.378906 175.359375 188.308594 L 174.867188 188.308594 C 174.925781 188.234375 174.96875 188.179688 175.03125 188.101562 C 174.820312 188.109375 174.652344 188.019531 174.484375 187.847656 C 174.683594 187.847656 174.863281 187.859375 175.039062 187.84375 C 175.296875 187.816406 175.550781 187.730469 175.765625 187.503906 C 175.878906 187.382812 175.964844 187.230469 176.050781 187.050781 C 175.878906 187.121094 175.71875 187.1875 175.558594 187.257812 C 175.558594 187.25 175.554688 187.242188 175.550781 187.234375 C 175.605469 187.167969 175.65625 187.097656 175.707031 187.03125 C 175.503906 187.097656 175.304688 187.074219 175.109375 186.964844 C 175.25 186.902344 175.390625 186.855469 175.519531 186.78125 C 175.652344 186.707031 175.777344 186.601562 175.863281 186.445312 C 175.707031 186.4375 175.550781 186.425781 175.394531 186.417969 C 175.394531 186.402344 175.394531 186.390625 175.390625 186.375 C 175.640625 186.257812 175.886719 186.125 176.042969 185.785156 C 175.921875 185.820312 175.804688 185.851562 175.667969 185.886719 C 175.703125 185.820312 175.722656 185.785156 175.757812 185.722656 L 175.488281 185.722656 C 175.714844 185.566406 175.945312 185.449219 176.105469 185.140625 L 175.855469 185.140625 C 175.929688 185.023438 176 184.917969 176.078125 184.789062 L 175.808594 184.789062 C 176.019531 184.601562 176.164062 184.371094 176.210938 184.027344 C 176.140625 184.085938 176.078125 184.136719 176.011719 184.191406 C 176.175781 183.707031 176.273438 183.199219 176.347656 182.675781 C 176.410156 183.210938 176.492188 183.738281 176.644531 184.242188 C 176.601562 184.199219 176.558594 184.15625 176.5 184.09375 C 176.582031 184.464844 176.730469 184.722656 176.976562 184.917969 C 176.90625 184.925781 176.863281 184.9375 176.816406 184.941406 C 176.773438 184.945312 176.730469 184.941406 176.675781 184.941406 C 176.75 185.136719 176.875 185.246094 176.996094 185.351562 C 176.996094 185.363281 176.992188 185.375 176.992188 185.386719 C 176.882812 185.367188 176.773438 185.347656 176.660156 185.328125 C 176.710938 185.507812 176.792969 185.671875 176.910156 185.800781 C 177.023438 185.921875 177.144531 186.035156 177.269531 186.15625 C 177.085938 186.183594 176.917969 186.105469 176.75 186.019531 C 176.746094 186.027344 176.738281 186.039062 176.734375 186.046875 C 176.835938 186.199219 176.9375 186.347656 177.035156 186.5 C 176.996094 186.496094 176.957031 186.492188 176.917969 186.484375 C 177.097656 186.707031 177.328125 186.746094 177.554688 186.859375 C 177.320312 187.015625 177.097656 187.03125 176.851562 186.917969 C 177.066406 187.285156 177.355469 187.375 177.648438 187.464844 C 177.511719 187.484375 177.375 187.5 177.238281 187.519531 L 177.234375 187.542969 C 177.425781 187.601562 177.621094 187.65625 177.824219 187.71875 C 177.675781 187.828125 177.519531 187.824219 177.351562 187.847656 C 177.433594 187.933594 177.511719 188.015625 177.605469 188.117188 C 177.378906 188.148438 177.183594 188.082031 176.984375 187.96875 C 177.039062 188.058594 177.386719 188.449219 177.472656 188.464844 C 177.46875 188.472656 176.929688 188.320312 176.929688 188.320312 C 176.929688 188.320312 177.4375 188.792969 177.804688 188.867188 C 178.03125 188.914062 178.253906 188.964844 178.484375 189.015625 C 178.398438 189.113281 178.175781 189.207031 177.976562 189.199219 C 177.800781 189.191406 177.628906 189.148438 177.453125 189.117188 C 177.648438 189.257812 177.847656 189.398438 178.046875 189.539062 C 177.875 189.613281 177.664062 189.578125 177.242188 189.417969 C 177.3125 189.496094 177.382812 189.578125 177.453125 189.65625 C 177.445312 189.675781 177.433594 189.695312 177.425781 189.714844 C 177.246094 189.613281 177.066406 189.511719 176.898438 189.417969 C 176.945312 189.53125 177.058594 189.660156 177.222656 189.789062 C 177.542969 190.046875 177.894531 190.1875 178.261719 190.214844 C 178.5625 190.242188 178.867188 190.226562 179.167969 190.230469 C 179.183594 190.230469 179.195312 190.234375 179.207031 190.234375 C 179.210938 190.242188 179.210938 190.253906 179.214844 190.265625 C 179.082031 190.339844 178.949219 190.417969 178.800781 190.507812 C 178.882812 190.554688 178.957031 190.597656 179.027344 190.640625 C 179.03125 190.648438 179.03125 190.660156 179.03125 190.671875 C 178.890625 190.695312 178.75 190.71875 178.589844 190.746094 C 178.671875 190.800781 178.738281 190.847656 178.804688 190.890625 C 178.804688 190.902344 178.804688 190.910156 178.804688 190.917969 L 178.285156 190.917969 C 178.347656 191 178.386719 191.054688 178.445312 191.125 C 178.230469 191.113281 178.050781 191.046875 177.886719 190.890625 C 177.882812 190.898438 177.875 190.910156 177.871094 190.921875 C 177.96875 191.058594 178.070312 191.195312 178.1875 191.359375 C 178.023438 191.347656 177.875 191.34375 177.726562 191.316406 C 177.574219 191.289062 177.425781 191.234375 177.261719 191.183594 C 177.605469 191.53125 177.976562 191.757812 178.371094 191.878906 C 178.765625 191.996094 179.164062 192.070312 179.546875 192.15625 C 179.328125 192.28125 179.078125 192.300781 178.820312 192.328125 C 178.984375 192.449219 179.148438 192.574219 179.3125 192.695312 C 179.003906 192.714844 178.714844 192.632812 178.429688 192.476562 C 178.425781 192.488281 178.421875 192.5 178.414062 192.511719 C 178.589844 192.703125 178.765625 192.890625 178.941406 193.082031 C 178.9375 193.09375 178.9375 193.101562 178.933594 193.113281 C 178.722656 193.035156 178.507812 192.957031 178.296875 192.878906 C 178.324219 192.925781 178.355469 192.980469 178.402344 193.054688 C 178.070312 192.988281 177.78125 192.785156 177.492188 192.617188 C 177.484375 192.628906 177.480469 192.640625 177.476562 192.652344 C 177.621094 192.78125 177.761719 192.917969 177.914062 193.035156 C 178.3125 193.347656 178.75 193.507812 179.183594 193.683594 C 179.414062 193.773438 179.644531 193.84375 179.875 193.925781 C 179.890625 193.929688 179.90625 193.941406 179.9375 193.957031 C 179.523438 194.066406 179.128906 194.082031 178.710938 193.910156 C 178.769531 193.988281 178.808594 194.042969 178.847656 194.09375 C 178.84375 194.105469 178.84375 194.117188 178.835938 194.125 C 178.714844 194.058594 178.589844 193.992188 178.445312 193.914062 C 178.496094 194 178.539062 194.074219 178.589844 194.164062 C 178.183594 194.0625 177.835938 193.808594 177.476562 193.574219 C 177.535156 193.648438 177.585938 193.734375 177.648438 193.800781 C 178.039062 194.230469 178.484375 194.476562 178.957031 194.632812 C 179.136719 194.691406 179.3125 194.746094 179.488281 194.800781 L 179.488281 194.835938 L 178.800781 194.835938 C 178.796875 194.847656 178.796875 194.863281 178.796875 194.875 C 178.886719 194.921875 178.976562 194.964844 179.066406 195 C 179.027344 194.957031 178.992188 194.914062 178.957031 194.863281 C 179.640625 195.089844 180.316406 195.105469 180.980469 194.796875 C 180.980469 194.785156 180.980469 194.777344 180.980469 194.765625 C 180.878906 194.742188 180.777344 194.71875 180.679688 194.695312 C 181.125 194.550781 181.566406 194.421875 181.941406 194.039062 C 181.671875 194.152344 181.402344 194.261719 181.132812 194.371094 C 181.132812 194.363281 181.128906 194.355469 181.128906 194.347656 C 181.316406 194.132812 181.507812 193.917969 181.695312 193.699219 L 181.679688 193.664062 C 181.007812 194.179688 180.308594 194.445312 179.535156 194.066406 C 180.058594 193.976562 180.5625 193.863281 181.035156 193.539062 C 180.796875 193.492188 180.578125 193.453125 180.355469 193.414062 C 180.355469 193.398438 180.355469 193.378906 180.355469 193.363281 C 180.878906 193.269531 181.414062 193.234375 181.890625 192.785156 C 181.710938 192.828125 181.554688 192.867188 181.386719 192.90625 C 181.457031 192.761719 181.519531 192.625 181.582031 192.492188 C 181.578125 192.484375 181.574219 192.480469 181.566406 192.476562 C 181.453125 192.566406 181.335938 192.660156 181.210938 192.765625 C 181.222656 192.695312 181.230469 192.644531 181.246094 192.566406 C 181.074219 192.722656 180.894531 192.789062 180.691406 192.796875 C 180.765625 192.710938 180.832031 192.636719 180.894531 192.5625 L 180.886719 192.542969 C 180.796875 192.558594 180.707031 192.574219 180.617188 192.589844 C 180.613281 192.582031 180.613281 192.574219 180.609375 192.566406 C 180.632812 192.546875 180.65625 192.527344 180.679688 192.503906 C 180.675781 192.496094 180.671875 192.480469 180.667969 192.46875 C 180.5 192.503906 180.332031 192.535156 180.164062 192.566406 C 180.160156 192.558594 180.15625 192.550781 180.152344 192.542969 C 180.257812 192.433594 180.359375 192.328125 180.472656 192.207031 C 180.308594 192.222656 180.164062 192.234375 180.019531 192.25 L 180.015625 192.207031 C 180.050781 192.160156 180.089844 192.113281 180.132812 192.058594 C 179.980469 191.964844 179.839844 191.875 179.695312 191.785156 C 179.695312 191.777344 179.695312 191.769531 179.699219 191.761719 C 179.785156 191.773438 179.875 191.78125 179.964844 191.792969 C 180.414062 191.859375 180.863281 191.839844 181.308594 191.6875 C 181.542969 191.609375 181.777344 191.445312 181.898438 191.289062 C 181.683594 191.316406 181.464844 191.34375 181.238281 191.371094 C 181.238281 191.367188 181.238281 191.363281 181.238281 191.359375 C 181.445312 191.261719 181.652344 191.175781 181.851562 191.0625 C 182.054688 190.953125 182.21875 190.757812 182.371094 190.507812 C 182.140625 190.636719 181.921875 190.761719 181.703125 190.882812 C 181.703125 190.878906 181.699219 190.871094 181.699219 190.863281 C 181.738281 190.785156 181.78125 190.699219 181.820312 190.621094 C 181.683594 190.722656 181.558594 190.84375 181.421875 190.917969 C 181.285156 190.988281 181.136719 191.011719 180.988281 191.03125 C 181.101562 190.925781 181.214844 190.820312 181.328125 190.710938 C 181.324219 190.695312 181.320312 190.679688 181.316406 190.664062 C 181.011719 190.820312 180.710938 190.796875 180.414062 190.683594 C 180.589844 190.585938 180.769531 190.484375 180.949219 190.386719 C 180.945312 190.375 180.941406 190.367188 180.941406 190.355469 C 180.78125 190.296875 180.621094 190.238281 180.464844 190.179688 C 180.464844 190.164062 180.464844 190.152344 180.46875 190.136719 C 180.832031 190.089844 181.203125 190.128906 181.578125 189.941406 C 181.488281 189.914062 181.425781 189.894531 181.359375 189.871094 C 181.703125 189.753906 182.039062 189.636719 182.292969 189.257812 C 182.078125 189.339844 181.871094 189.417969 181.664062 189.5 C 181.660156 189.484375 181.652344 189.472656 181.648438 189.457031 C 181.691406 189.40625 181.738281 189.351562 181.800781 189.273438 C 181.515625 189.332031 181.265625 189.285156 181.015625 189.054688 C 181.535156 188.984375 182.027344 188.878906 182.449219 188.390625 C 182.246094 188.441406 182.0625 188.488281 181.855469 188.542969 C 181.910156 188.445312 181.949219 188.375 181.992188 188.300781 L 181.496094 188.300781 C 181.554688 188.230469 181.601562 188.175781 181.664062 188.097656 C 181.449219 188.105469 181.28125 188.015625 181.113281 187.839844 C 181.3125 187.839844 181.492188 187.855469 181.667969 187.839844 C 181.929688 187.8125 182.179688 187.726562 182.394531 187.5 C 182.511719 187.378906 182.597656 187.222656 182.679688 187.042969 C 182.507812 187.117188 182.347656 187.183594 182.191406 187.253906 C 182.1875 187.246094 182.183594 187.238281 182.183594 187.230469 C 182.234375 187.164062 182.289062 187.09375 182.339844 187.027344 C 182.132812 187.09375 181.933594 187.070312 181.742188 186.957031 C 181.878906 186.898438 182.019531 186.851562 182.148438 186.777344 C 182.28125 186.703125 182.40625 186.597656 182.496094 186.441406 C 182.339844 186.433594 182.183594 186.421875 182.027344 186.410156 C 182.023438 186.398438 182.023438 186.382812 182.019531 186.371094 C 182.269531 186.253906 182.515625 186.121094 182.671875 185.78125 C 182.550781 185.8125 182.433594 185.84375 182.296875 185.882812 C 182.332031 185.816406 182.351562 185.777344 182.386719 185.714844 L 182.117188 185.714844 C 182.34375 185.558594 182.574219 185.445312 182.738281 185.132812 L 182.484375 185.132812 C 182.558594 185.019531 182.628906 184.914062 182.710938 184.785156 L 182.4375 184.785156 C 182.652344 184.597656 182.792969 184.367188 182.84375 184.023438 C 182.769531 184.082031 182.707031 184.132812 182.644531 184.1875 C 182.808594 183.703125 182.902344 183.195312 182.976562 182.671875 C 183.042969 183.207031 183.121094 183.730469 183.277344 184.238281 C 183.230469 184.195312 183.1875 184.152344 183.128906 184.089844 C 183.210938 184.460938 183.359375 184.71875 183.605469 184.910156 C 183.535156 184.921875 183.492188 184.933594 183.449219 184.9375 C 183.402344 184.941406 183.359375 184.9375 183.308594 184.9375 C 183.378906 185.132812 183.503906 185.242188 183.625 185.347656 C 183.625 185.359375 183.621094 185.371094 183.621094 185.382812 C 183.511719 185.363281 183.402344 185.339844 183.289062 185.324219 C 183.339844 185.503906 183.421875 185.667969 183.539062 185.792969 C 183.652344 185.917969 183.777344 186.027344 183.898438 186.148438 C 183.714844 186.179688 183.546875 186.101562 183.378906 186.015625 C 183.375 186.023438 183.371094 186.035156 183.363281 186.042969 C 183.464844 186.191406 183.566406 186.34375 183.664062 186.496094 C 183.625 186.492188 183.585938 186.484375 183.546875 186.480469 C 183.726562 186.703125 183.957031 186.738281 184.183594 186.851562 C 183.953125 187.011719 183.726562 187.027344 183.480469 186.914062 C 183.695312 187.28125 183.984375 187.371094 184.277344 187.460938 C 184.140625 187.480469 184.003906 187.496094 183.867188 187.511719 L 183.863281 187.535156 C 184.054688 187.597656 184.25 187.652344 184.453125 187.714844 C 184.304688 187.820312 184.148438 187.820312 183.980469 187.84375 C 184.0625 187.925781 184.140625 188.011719 184.234375 188.109375 C 184.011719 188.140625 183.8125 188.078125 183.613281 187.960938 C 183.667969 188.054688 184.015625 188.445312 184.101562 188.460938 C 184.097656 188.46875 183.558594 188.316406 183.558594 188.316406 C 183.558594 188.316406 184.066406 188.789062 184.4375 188.863281 C 184.660156 188.90625 184.882812 188.960938 185.113281 189.011719 C 185.027344 189.109375 184.804688 189.203125 184.605469 189.195312 C 184.429688 189.1875 184.257812 189.140625 184.082031 189.113281 C 184.28125 189.253906 184.480469 189.394531 184.675781 189.535156 C 184.503906 189.609375 184.292969 189.574219 183.871094 189.414062 C 183.941406 189.492188 184.011719 189.574219 184.082031 189.652344 C 184.074219 189.667969 184.066406 189.691406 184.054688 189.710938 C 183.875 189.609375 183.695312 189.507812 183.527344 189.414062 C 183.578125 189.527344 183.6875 189.65625 183.851562 189.785156 C 184.175781 190.042969 184.523438 190.179688 184.890625 190.210938 C 185.191406 190.234375 185.496094 190.222656 185.796875 190.226562 C 185.8125 190.226562 185.824219 190.230469 185.835938 190.230469 C 185.839844 190.238281 185.84375 190.25 185.84375 190.257812 C 185.710938 190.335938 185.582031 190.414062 185.429688 190.5 C 185.511719 190.550781 185.585938 190.59375 185.660156 190.636719 C 185.660156 190.644531 185.660156 190.65625 185.660156 190.664062 C 185.519531 190.691406 185.378906 190.714844 185.21875 190.742188 C 185.300781 190.796875 185.367188 190.839844 185.433594 190.886719 C 185.433594 190.898438 185.433594 190.90625 185.433594 190.914062 L 184.914062 190.914062 C 184.976562 190.996094 185.019531 191.046875 185.074219 191.121094 C 184.863281 191.109375 184.679688 191.042969 184.515625 190.886719 C 184.511719 190.894531 184.507812 190.90625 184.5 190.917969 C 184.601562 191.054688 184.699219 191.191406 184.820312 191.355469 C 184.652344 191.339844 184.503906 191.339844 184.355469 191.3125 C 184.203125 191.28125 184.054688 191.230469 183.890625 191.179688 C 184.234375 191.527344 184.605469 191.753906 185 191.875 C 185.394531 191.992188 185.792969 192.0625 186.175781 192.152344 C 185.957031 192.277344 185.707031 192.296875 185.453125 192.324219 C 185.613281 192.445312 185.777344 192.566406 185.941406 192.6875 C 185.632812 192.710938 185.34375 192.628906 185.058594 192.472656 C 185.054688 192.484375 185.050781 192.496094 185.042969 192.503906 C 185.21875 192.695312 185.394531 192.886719 185.570312 193.078125 C 185.566406 193.085938 185.566406 193.097656 185.566406 193.109375 C 185.351562 193.03125 185.136719 192.953125 184.925781 192.875 C 184.953125 192.917969 184.984375 192.972656 185.035156 193.050781 C 184.699219 192.980469 184.410156 192.78125 184.121094 192.609375 C 184.117188 192.625 184.109375 192.636719 184.105469 192.648438 C 184.25 192.777344 184.394531 192.914062 184.542969 193.03125 C 184.941406 193.34375 185.378906 193.503906 185.8125 193.675781 C 186.042969 193.769531 186.277344 193.839844 186.503906 193.921875 C 186.519531 193.925781 186.535156 193.933594 186.570312 193.953125 C 186.152344 194.0625 185.757812 194.078125 185.339844 193.90625 C 185.398438 193.984375 185.4375 194.039062 185.476562 194.089844 C 185.476562 194.097656 185.472656 194.109375 185.46875 194.121094 C 185.34375 194.054688 185.21875 193.984375 185.078125 193.910156 C 185.125 193.996094 185.167969 194.070312 185.21875 194.160156 C 184.8125 194.054688 184.464844 193.804688 184.105469 193.570312 C 184.164062 193.644531 184.21875 193.726562 184.28125 193.796875 C 184.667969 194.226562 185.113281 194.472656 185.589844 194.628906 C 185.765625 194.6875 185.941406 194.742188 186.121094 194.796875 L 186.117188 194.828125 L 185.429688 194.828125 C 185.425781 194.84375 185.425781 194.855469 185.425781 194.871094 C 185.980469 195.160156 186.558594 195.242188 187.144531 195.320312 C 186.910156 195.4375 186.675781 195.480469 186.421875 195.460938 C 186.464844 195.492188 186.507812 195.523438 186.554688 195.554688 C 186.554688 195.5625 186.554688 195.574219 186.554688 195.582031 C 186.445312 195.589844 186.332031 195.601562 186.214844 195.609375 C 186.242188 195.660156 186.269531 195.703125 186.308594 195.769531 C 186.898438 195.78125 187.480469 195.757812 188.046875 195.464844 C 187.820312 195.429688 187.59375 195.398438 187.363281 195.363281 C 188.347656 195.234375 189.292969 194.980469 190.078125 194.042969 C 189.671875 194.3125 189.265625 194.585938 188.808594 194.710938 C 188.84375 194.644531 188.867188 194.59375 188.894531 194.539062 C 188.660156 194.667969 188.425781 194.792969 188.175781 194.933594 C 188.292969 194.695312 188.394531 194.496094 188.496094 194.292969 C 188.492188 194.289062 188.488281 194.28125 188.480469 194.277344 C 188.253906 194.433594 188.027344 194.585938 187.800781 194.742188 C 187.792969 194.734375 187.789062 194.722656 187.785156 194.714844 C 187.949219 194.476562 188.113281 194.238281 188.277344 194 C 188.269531 193.984375 188.261719 193.972656 188.257812 193.957031 C 187.925781 194.210938 187.574219 194.359375 187.191406 194.398438 C 187.320312 194.230469 187.449219 194.058594 187.582031 193.886719 C 187.371094 193.933594 187.167969 193.976562 186.960938 194.023438 C 186.957031 194.011719 186.953125 194.003906 186.949219 193.988281 C 187.019531 193.898438 187.089844 193.804688 187.160156 193.710938 C 187.160156 193.699219 187.160156 193.6875 187.160156 193.675781 L 186.554688 193.675781 C 186.554688 193.664062 186.554688 193.652344 186.554688 193.640625 C 186.726562 193.574219 186.902344 193.507812 187.101562 193.433594 C 186.796875 193.292969 186.53125 193.128906 186.320312 192.816406 C 187.195312 193.105469 188.0625 193.125 188.914062 192.730469 C 188.914062 192.71875 188.914062 192.703125 188.914062 192.691406 C 188.785156 192.660156 188.660156 192.632812 188.53125 192.601562 C 189.097656 192.410156 189.664062 192.253906 190.144531 191.757812 C 189.800781 191.898438 189.457031 192.042969 189.109375 192.183594 C 189.109375 192.171875 189.105469 192.164062 189.105469 192.152344 C 189.347656 191.875 189.589844 191.601562 189.832031 191.324219 L 189.8125 191.273438 C 188.949219 191.941406 188.054688 192.277344 187.058594 191.792969 C 187.730469 191.675781 188.375 191.53125 188.980469 191.113281 C 188.679688 191.058594 188.394531 191.003906 188.109375 190.953125 C 188.109375 190.929688 188.109375 190.910156 188.109375 190.890625 C 188.78125 190.769531 189.46875 190.726562 190.082031 190.148438 C 189.851562 190.203125 189.648438 190.25 189.4375 190.300781 C 189.523438 190.113281 189.605469 189.941406 189.6875 189.769531 C 189.679688 189.761719 189.675781 189.753906 189.667969 189.746094 C 189.519531 189.867188 189.371094 189.984375 189.207031 190.117188 C 189.222656 190.027344 189.238281 189.964844 189.257812 189.867188 C 189.035156 190.066406 188.804688 190.148438 188.542969 190.164062 C 188.640625 190.050781 188.722656 189.953125 188.804688 189.859375 L 188.796875 189.832031 C 188.679688 189.855469 188.566406 189.875 188.453125 189.894531 C 188.449219 189.886719 188.445312 189.875 188.441406 189.867188 C 188.472656 189.839844 188.503906 189.8125 188.53125 189.785156 C 188.527344 189.773438 188.523438 189.753906 188.519531 189.742188 C 188.304688 189.78125 188.085938 189.824219 187.871094 189.867188 C 187.867188 189.855469 187.863281 189.84375 187.859375 189.832031 C 187.988281 189.695312 188.121094 189.558594 188.265625 189.40625 C 188.058594 189.425781 187.871094 189.441406 187.6875 189.457031 L 187.675781 189.40625 C 187.726562 189.34375 187.773438 189.285156 187.828125 189.214844 C 187.636719 189.089844 187.453125 188.976562 187.269531 188.863281 C 187.273438 188.851562 187.273438 188.839844 187.273438 188.828125 C 187.386719 188.84375 187.5 188.855469 187.613281 188.871094 C 188.191406 188.957031 188.769531 188.929688 189.339844 188.734375 C 189.640625 188.632812 189.941406 188.421875 190.09375 188.226562 C 189.820312 188.257812 189.535156 188.292969 189.25 188.328125 C 189.25 188.324219 189.25 188.316406 189.25 188.308594 C 189.511719 188.183594 189.777344 188.078125 190.035156 187.933594 C 190.296875 187.785156 190.507812 187.539062 190.699219 187.21875 C 190.40625 187.386719 190.125 187.542969 189.847656 187.703125 C 189.84375 187.695312 189.839844 187.683594 189.839844 187.675781 C 189.890625 187.570312 189.941406 187.464844 189.996094 187.363281 C 189.820312 187.492188 189.660156 187.648438 189.484375 187.742188 C 189.308594 187.835938 189.117188 187.863281 188.929688 187.890625 C 189.074219 187.753906 189.21875 187.617188 189.367188 187.480469 C 189.359375 187.457031 189.355469 187.4375 189.347656 187.414062 C 188.957031 187.617188 188.570312 187.585938 188.191406 187.441406 C 188.417969 187.316406 188.644531 187.1875 188.875 187.058594 C 188.875 187.046875 188.867188 187.03125 188.867188 187.019531 C 188.660156 186.945312 188.457031 186.871094 188.253906 186.796875 C 188.253906 186.777344 188.257812 186.757812 188.257812 186.742188 C 188.722656 186.679688 189.199219 186.730469 189.683594 186.488281 C 189.570312 186.453125 189.484375 186.425781 189.402344 186.398438 C 189.84375 186.25 190.273438 186.097656 190.601562 185.609375 C 190.328125 185.714844 190.0625 185.820312 189.796875 185.921875 C 189.789062 185.90625 189.78125 185.886719 189.777344 185.867188 C 189.832031 185.800781 189.886719 185.730469 189.96875 185.628906 C 189.601562 185.707031 189.277344 185.644531 188.960938 185.351562 C 189.628906 185.257812 190.261719 185.125 190.800781 184.5 C 190.539062 184.5625 190.304688 184.621094 190.039062 184.691406 C 190.109375 184.570312 190.160156 184.476562 190.210938 184.386719 L 189.578125 184.386719 C 189.65625 184.292969 189.710938 184.222656 189.789062 184.125 C 189.519531 184.132812 189.300781 184.019531 189.085938 183.792969 C 189.339844 183.792969 189.570312 183.8125 189.796875 183.789062 C 190.128906 183.753906 190.449219 183.644531 190.726562 183.355469 C 190.875 183.199219 190.988281 183 191.09375 182.769531 C 190.875 182.863281 190.671875 182.949219 190.464844 183.039062 C 190.464844 183.027344 190.460938 183.019531 190.453125 183.007812 C 190.523438 182.921875 190.589844 182.835938 190.65625 182.75 C 190.394531 182.835938 190.140625 182.804688 189.890625 182.660156 C 190.066406 182.582031 190.246094 182.523438 190.414062 182.425781 C 190.585938 182.332031 190.742188 182.195312 190.859375 181.996094 C 190.65625 181.984375 190.457031 181.972656 190.257812 181.960938 C 190.253906 181.941406 190.253906 181.925781 190.25 181.90625 C 190.574219 181.753906 190.886719 181.585938 191.085938 181.148438 C 190.929688 181.191406 190.78125 181.230469 190.605469 181.28125 C 190.648438 181.195312 190.675781 181.148438 190.71875 181.070312 L 190.375 181.070312 C 190.664062 180.867188 190.960938 180.71875 191.171875 180.324219 L 190.847656 180.324219 C 190.941406 180.175781 191.03125 180.039062 191.136719 179.875 L 190.785156 179.875 C 191.0625 179.632812 191.242188 179.339844 191.308594 178.898438 C 191.214844 178.976562 191.132812 179.039062 191.054688 179.109375 C 191.261719 178.484375 191.390625 177.832031 191.480469 177.164062 C 191.5625 177.851562 191.667969 178.523438 191.867188 179.171875 C 191.808594 179.117188 191.753906 179.0625 191.675781 178.984375 C 191.78125 179.460938 191.972656 179.789062 192.289062 180.035156 C 192.199219 180.050781 192.144531 180.0625 192.085938 180.070312 C 192.03125 180.074219 191.972656 180.070312 191.90625 180.070312 C 192 180.320312 192.160156 180.457031 192.316406 180.597656 C 192.3125 180.609375 192.308594 180.625 192.308594 180.640625 C 192.167969 180.613281 192.023438 180.589844 191.882812 180.5625 C 191.945312 180.796875 192.054688 181.007812 192.203125 181.167969 C 192.347656 181.328125 192.507812 181.46875 192.667969 181.625 C 192.429688 181.664062 192.214844 181.5625 192 181.449219 C 191.996094 181.464844 191.988281 181.476562 191.980469 181.488281 C 192.109375 181.679688 192.238281 181.871094 192.367188 182.066406 C 192.316406 182.0625 192.265625 182.054688 192.214844 182.050781 C 192.445312 182.332031 192.742188 182.382812 193.03125 182.527344 C 192.734375 182.730469 192.449219 182.75 192.128906 182.605469 C 192.410156 183.078125 192.777344 183.191406 193.152344 183.308594 C 192.980469 183.332031 192.804688 183.351562 192.632812 183.375 L 192.625 183.40625 C 192.871094 183.480469 193.121094 183.554688 193.382812 183.632812 C 193.1875 183.773438 192.992188 183.769531 192.777344 183.796875 C 192.878906 183.90625 192.984375 184.015625 193.101562 184.144531 C 192.8125 184.183594 192.5625 184.101562 192.304688 183.953125 C 192.378906 184.070312 192.820312 184.570312 192.933594 184.59375 C 192.933594 184.605469 192.234375 184.40625 192.234375 184.40625 C 192.234375 184.40625 192.890625 185.011719 193.363281 185.109375 C 193.648438 185.167969 193.9375 185.234375 194.234375 185.296875 C 194.121094 185.425781 193.835938 185.542969 193.582031 185.53125 C 193.359375 185.523438 193.136719 185.464844 192.914062 185.429688 C 193.164062 185.605469 193.421875 185.789062 193.671875 185.96875 C 193.453125 186.066406 193.183594 186.019531 192.636719 185.816406 C 192.726562 185.914062 192.820312 186.019531 192.910156 186.117188 C 192.898438 186.144531 192.882812 186.167969 192.871094 186.191406 C 192.640625 186.0625 192.410156 185.933594 192.195312 185.8125 C 192.257812 185.957031 192.398438 186.125 192.609375 186.292969 C 193.023438 186.625 193.472656 186.800781 193.945312 186.839844 C 194.332031 186.871094 194.722656 186.851562 195.109375 186.859375 C 195.125 186.859375 195.144531 186.859375 195.160156 186.863281 C 195.164062 186.875 195.164062 186.886719 195.167969 186.902344 C 195 187 194.828125 187.097656 194.636719 187.210938 C 194.746094 187.273438 194.835938 187.328125 194.929688 187.382812 C 194.929688 187.394531 194.929688 187.410156 194.933594 187.421875 C 194.75 187.453125 194.570312 187.484375 194.363281 187.519531 C 194.46875 187.589844 194.554688 187.648438 194.644531 187.707031 C 194.644531 187.71875 194.640625 187.734375 194.640625 187.742188 L 193.972656 187.742188 C 194.054688 187.847656 194.105469 187.917969 194.175781 188.011719 C 193.90625 187.996094 193.671875 187.90625 193.464844 187.707031 C 193.453125 187.71875 193.449219 187.734375 193.441406 187.746094 C 193.566406 187.925781 193.699219 188.101562 193.851562 188.3125 C 193.640625 188.292969 193.445312 188.289062 193.253906 188.253906 C 193.0625 188.21875 192.871094 188.148438 192.65625 188.085938 C 193.097656 188.53125 193.574219 188.824219 194.085938 188.976562 C 194.589844 189.128906 195.101562 189.21875 195.589844 189.332031 C 195.3125 189.492188 194.992188 189.519531 194.660156 189.554688 C 194.871094 189.710938 195.082031 189.867188 195.289062 190.023438 C 194.898438 190.050781 194.523438 189.945312 194.15625 189.746094 C 194.152344 189.761719 194.144531 189.773438 194.140625 189.789062 C 194.363281 190.035156 194.589844 190.277344 194.8125 190.523438 C 194.8125 190.535156 194.808594 190.550781 194.808594 190.5625 C 194.53125 190.464844 194.257812 190.363281 193.988281 190.265625 C 194.023438 190.320312 194.066406 190.390625 194.125 190.492188 C 193.695312 190.402344 193.328125 190.144531 192.953125 189.925781 C 192.945312 189.941406 192.941406 189.960938 192.933594 189.976562 C 193.121094 190.140625 193.304688 190.316406 193.496094 190.464844 C 194.007812 190.867188 194.570312 191.074219 195.128906 191.296875 C 195.421875 191.410156 195.71875 191.507812 196.015625 191.609375 C 196.035156 191.617188 196.054688 191.628906 196.097656 191.652344 C 195.5625 191.792969 195.054688 191.808594 194.519531 191.59375 C 194.597656 191.691406 194.648438 191.757812 194.699219 191.828125 C 194.695312 191.839844 194.6875 191.851562 194.6875 191.867188 C 194.527344 191.78125 194.367188 191.695312 194.183594 191.597656 C 194.25 191.707031 194.304688 191.800781 194.371094 191.917969 C 193.847656 191.785156 193.402344 191.460938 192.941406 191.160156 C 193.011719 191.257812 193.082031 191.363281 193.160156 191.453125 C 193.65625 192.003906 194.230469 192.316406 194.839844 192.519531 C 195.066406 192.59375 195.292969 192.664062 195.523438 192.734375 L 195.519531 192.777344 L 194.636719 192.777344 C 194.636719 192.792969 194.636719 192.8125 194.632812 192.828125 C 195.34375 193.199219 196.089844 193.304688 196.839844 193.40625 C 196.542969 193.554688 196.238281 193.609375 195.914062 193.585938 C 195.96875 193.628906 196.027344 193.667969 196.082031 193.707031 C 196.082031 193.71875 196.082031 193.730469 196.082031 193.742188 C 195.941406 193.753906 195.800781 193.765625 195.648438 193.777344 C 195.6875 193.84375 195.726562 193.90625 195.789062 194.003906 C 195.570312 193.917969 195.382812 193.847656 195.195312 193.773438 C 195.191406 193.78125 195.1875 193.789062 195.183594 193.796875 C 195.242188 193.871094 195.296875 193.941406 195.355469 194.015625 C 195.351562 194.027344 195.347656 194.042969 195.34375 194.054688 C 195.113281 193.964844 194.886719 193.875 194.65625 193.789062 C 194.652344 193.796875 194.644531 193.800781 194.640625 193.804688 C 194.726562 193.929688 194.8125 194.050781 194.90625 194.183594 C 194.738281 194.15625 194.570312 194.125 194.402344 194.09375 C 194.398438 194.101562 194.394531 194.109375 194.390625 194.113281 C 194.484375 194.203125 194.570312 194.304688 194.667969 194.378906 C 195.027344 194.648438 195.40625 194.808594 195.804688 194.90625 L 202.1875 189.15625 L 207.332031 181.390625 L 195.078125 168.589844 Z M 189.089844 160.734375 " fill-opacity="1" fill-rule="nonzero"/></svg>