<svg xmlns="http://www.w3.org/2000/svg" xmlns:xlink="http://www.w3.org/1999/xlink" width="500" zoomAndPan="magnify" viewBox="0 0 375 374.999991" height="500" preserveAspectRatio="xMidYMid meet" version="1.0"><path fill="#000000" d="M 176.65625 200.8125 L 184.742188 229.796875 L 194.066406 229.796875 L 202.152344 200.8125 L 196.707031 200.8125 L 190.496094 223.914062 L 188.3125 223.914062 L 182.101562 200.8125 Z M 163.242188 229.796875 L 163.996094 224.839844 L 151.207031 224.839844 L 151.207031 200.8125 L 145.929688 200.8125 L 145.929688 229.796875 Z M 167.746094 229.796875 L 167.746094 200.816406 L 173.023438 200.816406 L 173.023438 229.796875 Z M 205.769531 200.8125 L 205.769531 229.796875 L 223.996094 229.796875 L 223.996094 224.753906 L 211.050781 224.753906 L 211.050781 217.96875 L 223.128906 217.96875 L 223.128906 212.929688 L 211.050781 212.929688 L 211.050781 205.855469 L 223.996094 205.855469 L 223.996094 200.8125 Z M 190.214844 171.628906 L 185.21875 173.046875 C 184.480469 172.183594 183.019531 170.839844 183.019531 170.839844 L 176.105469 170.839844 C 175.402344 171.039062 174.660156 171.820312 173.898438 172.894531 L 173.898438 188.210938 C 174.496094 189.03125 175.167969 189.761719 176 190.300781 L 182.828125 190.300781 C 183.601562 189.804688 184.375 189.296875 185.097656 188.082031 L 185.097656 183.414062 L 178.9375 183.414062 L 178.9375 178.355469 L 190.375 178.355469 L 190.375 189.195312 L 191.367188 195.066406 L 186.015625 195.066406 L 185.765625 192.445312 C 184.824219 193.453125 183.898438 194.46875 182.0625 195.359375 L 176 195.359375 C 175.558594 195.40625 175.117188 195.40625 174.675781 195.359375 C 174.234375 195.316406 173.804688 195.230469 173.378906 195.101562 C 172.953125 194.972656 172.546875 194.800781 172.15625 194.59375 C 171.765625 194.382812 171.398438 194.136719 171.054688 193.855469 C 170.710938 193.570312 170.398438 193.257812 170.117188 192.914062 C 169.835938 192.570312 169.59375 192.203125 169.382812 191.808594 C 169.175781 191.417969 169.007812 191.007812 168.878906 190.582031 C 168.75 190.15625 168.664062 189.722656 168.621094 189.28125 L 168.621094 172.40625 C 168.628906 171.960938 168.683594 171.519531 168.777344 171.085938 C 168.875 170.652344 169.011719 170.230469 169.1875 169.824219 C 169.367188 169.417969 169.582031 169.03125 169.839844 168.667969 C 170.09375 168.304688 170.378906 167.96875 170.699219 167.660156 C 171.019531 167.351562 171.367188 167.078125 171.742188 166.839844 C 172.113281 166.601562 172.507812 166.398438 172.921875 166.238281 C 173.335938 166.078125 173.757812 165.957031 174.195312 165.882812 C 174.632812 165.804688 175.074219 165.769531 175.515625 165.777344 L 183.429688 165.777344 C 184.707031 165.972656 185.871094 166.449219 186.921875 167.207031 C 187.96875 167.96875 188.789062 168.921875 189.375 170.078125 Z M 130.492188 195.066406 L 130.492188 172.679688 L 129.480469 166.085938 L 134.800781 166.085938 L 135.03125 168.558594 L 135.214844 168.558594 C 136.183594 167.507812 137.117188 166.429688 138.957031 165.78125 L 144.039062 165.78125 C 144.847656 165.785156 145.625 165.953125 146.363281 166.28125 C 147.105469 166.609375 147.75 167.074219 148.296875 167.667969 L 149.761719 169.21875 C 150.652344 170.070312 151.132812 171.113281 151.199219 172.347656 L 151.199219 195.066406 L 145.921875 195.066406 L 145.921875 172.894531 C 145.414062 172.027344 144.800781 171.269531 143.859375 170.839844 L 137.753906 170.839844 C 136.804688 171.367188 136.207031 172.085938 135.773438 172.894531 L 135.773438 195.066406 Z M 157.320312 195.066406 L 157.320312 166.082031 L 162.597656 166.082031 L 162.597656 195.066406 Z M 196.34375 166.082031 L 196.34375 195.066406 L 201.621094 195.066406 L 201.621094 183.140625 L 211.914062 183.140625 L 211.914062 195.066406 L 217.191406 195.066406 L 217.191406 166.082031 L 211.914062 166.082031 L 211.914062 178.203125 L 201.621094 178.203125 L 201.621094 166.082031 Z M 221.496094 166.082031 L 221.496094 171.082031 L 229.347656 171.082031 L 229.347656 195.066406 L 234.625 195.066406 L 234.625 171.082031 L 242.480469 171.082031 L 242.480469 166.082031 Z M 263.585938 131.261719 L 272.480469 151.976562 L 272.480469 160.246094 L 277.925781 160.246094 L 277.925781 151.976562 L 286.820312 131.261719 L 280.992188 131.261719 L 276.136719 143.382812 L 274.269531 143.382812 L 269.414062 131.261719 Z M 248.097656 149.105469 L 256.894531 149.105469 L 253.5625 137.128906 L 251.425781 137.128906 Z M 239.371094 160.246094 L 247.804688 131.261719 L 257.1875 131.261719 L 265.621094 160.246094 L 259.996094 160.246094 L 258.296875 154.136719 L 246.695312 154.136719 L 244.996094 160.246094 Z M 216.246094 131.261719 L 216.246094 160.246094 L 229.851562 160.246094 C 231.191406 160.246094 232.476562 159.710938 233.425781 158.761719 L 235.269531 156.910156 C 236.210938 155.96875 236.746094 154.691406 236.75 153.355469 L 236.75 138.152344 C 236.746094 136.816406 236.210938 135.539062 235.269531 134.59375 L 234.519531 133.84375 L 233.9375 133.257812 L 233.425781 132.746094 C 232.476562 131.796875 231.191406 131.261719 229.851562 131.261719 Z M 221.527344 136.191406 L 229.429688 136.191406 L 231.46875 138.242188 L 231.46875 153.265625 L 229.429688 155.3125 L 221.527344 155.3125 Z M 195.277344 136.226562 L 203.421875 136.226562 C 204.457031 136.226562 205.292969 137.066406 205.292969 138.101562 L 205.292969 141.933594 C 205.292969 143.015625 204.417969 143.890625 203.34375 143.890625 L 195.277344 143.890625 Z M 190 131.261719 L 190 160.242188 L 195.277344 160.242188 L 195.277344 148.886719 L 200.589844 148.886719 L 205.96875 160.246094 L 211.679688 160.246094 L 205.871094 148.4375 L 205.863281 148.429688 C 206.523438 148.324219 207.144531 148.109375 207.726562 147.78125 C 208.308594 147.453125 208.816406 147.035156 209.25 146.527344 C 209.683594 146.015625 210.019531 145.449219 210.25 144.820312 C 210.480469 144.191406 210.597656 143.542969 210.597656 142.871094 L 210.597656 137.417969 C 210.597656 137.015625 210.558594 136.613281 210.480469 136.21875 C 210.402344 135.820312 210.285156 135.4375 210.128906 135.0625 C 209.976562 134.6875 209.789062 134.335938 209.5625 134 C 209.339844 133.660156 209.085938 133.351562 208.800781 133.066406 C 208.515625 132.78125 208.207031 132.523438 207.871094 132.300781 C 207.535156 132.074219 207.183594 131.886719 206.808594 131.730469 C 206.4375 131.574219 206.054688 131.460938 205.65625 131.378906 C 205.261719 131.300781 204.863281 131.261719 204.460938 131.261719 Z M 163.503906 131.261719 L 163.503906 153.683594 C 163.527344 154.785156 163.964844 155.839844 164.730469 156.632812 L 166.5 158.554688 C 167.492188 159.722656 168.929688 160.421875 170.457031 160.484375 L 177.296875 160.484375 C 178.824219 160.421875 180.257812 159.722656 181.25 158.554688 L 183.023438 156.632812 C 183.785156 155.839844 184.222656 154.785156 184.246094 153.683594 L 184.246094 131.261719 L 178.96875 131.261719 L 178.96875 153.507812 L 177.054688 155.453125 L 170.695312 155.453125 L 168.785156 153.507812 L 168.785156 131.261719 Z M 138.160156 131.261719 L 138.160156 136.261719 L 146.015625 136.261719 L 146.015625 160.242188 L 151.292969 160.242188 L 151.292969 136.261719 L 159.144531 136.261719 L 159.144531 131.261719 Z M 122.101562 149.105469 L 130.902344 149.105469 L 127.570312 137.128906 L 125.433594 137.128906 Z M 113.375 160.246094 L 121.808594 131.261719 L 131.191406 131.261719 L 139.625 160.246094 L 134 160.246094 L 132.300781 154.136719 L 120.703125 154.136719 L 119.003906 160.246094 Z M 88.175781 154.816406 L 93.289062 153.117188 C 93.585938 153.550781 93.925781 154.015625 94.851562 154.976562 C 95.101562 155.234375 95.601562 155.441406 95.964844 155.441406 L 103.820312 155.441406 C 104.796875 154.769531 105.496094 154.085938 105.882812 153.382812 L 105.882812 150.339844 C 105.882812 150.1875 105.835938 150.046875 105.742188 149.921875 C 105.648438 149.800781 105.527344 149.71875 105.378906 149.675781 L 92.9375 146.179688 C 92.367188 146.019531 91.839844 145.773438 91.351562 145.4375 C 90.859375 145.105469 90.4375 144.699219 90.078125 144.226562 C 89.722656 143.753906 89.449219 143.238281 89.261719 142.675781 C 89.074219 142.113281 88.976562 141.535156 88.976562 140.941406 L 88.976562 138.332031 C 88.976562 137.539062 89.132812 136.78125 89.441406 136.050781 C 89.753906 135.324219 90.191406 134.683594 90.761719 134.136719 L 92.117188 132.835938 C 92.71875 132.257812 93.402344 131.8125 94.171875 131.503906 C 94.945312 131.191406 95.746094 131.035156 96.578125 131.035156 L 103.707031 131.035156 C 106.253906 131.035156 109.085938 133.519531 110.460938 136.394531 C 110.53125 136.546875 110.609375 136.699219 110.691406 136.851562 L 105.625 138.292969 C 105.226562 137.714844 104.722656 137.128906 104.199219 136.558594 C 103.945312 136.28125 103.449219 136.0625 103.09375 136.0625 L 96.675781 136.0625 C 96.480469 136.0625 96.195312 136.160156 96.039062 136.277344 C 95.628906 136.582031 95.25 136.835938 94.589844 137.582031 C 94.460938 137.726562 94.359375 138.007812 94.359375 138.207031 L 94.359375 140.613281 C 94.359375 140.859375 94.476562 141.015625 94.710938 141.085938 L 107.175781 144.742188 C 107.746094 144.910156 108.277344 145.164062 108.761719 145.503906 C 109.25 145.839844 109.671875 146.25 110.027344 146.726562 C 110.382812 147.203125 110.65625 147.722656 110.84375 148.285156 C 111.03125 148.851562 111.125 149.429688 111.125 150.027344 L 111.125 153.332031 C 111.125 154.71875 110.652344 155.921875 109.710938 156.9375 L 108.503906 158.242188 C 107.84375 158.957031 107.066406 159.507812 106.171875 159.898438 C 105.28125 160.289062 104.347656 160.484375 103.375 160.484375 L 95.542969 160.484375 C 94.21875 160.351562 92.996094 159.917969 91.882812 159.1875 C 90.765625 158.457031 89.882812 157.507812 89.234375 156.339844 Z M 88.175781 154.816406 " fill-opacity="1" fill-rule="nonzero"/></svg>