<svg xmlns="http://www.w3.org/2000/svg" xmlns:xlink="http://www.w3.org/1999/xlink" width="500" zoomAndPan="magnify" viewBox="0 0 375 374.999991" height="500" preserveAspectRatio="xMidYMid meet" version="1.0"><defs><clipPath id="04c6d78020"><path d="M 301 185 L 311.433594 185 L 311.433594 199 L 301 199 Z M 301 185 " clip-rule="nonzero"/></clipPath><clipPath id="bb2f9afc57"><path d="M 63.933594 181 L 75 181 L 75 195 L 63.933594 195 Z M 63.933594 181 " clip-rule="nonzero"/></clipPath><clipPath id="a5103c0906"><path d="M 98 168.75 L 230 168.75 L 230 206.25 L 98 206.25 Z M 98 168.75 " clip-rule="nonzero"/></clipPath></defs><path fill="#000000" d="M 233.730469 188.234375 C 233.730469 183.851562 236.1875 181.480469 239.476562 181.480469 C 242.519531 181.480469 243.96875 183.160156 244.554688 185.546875 L 242.449219 186.148438 C 241.953125 184.417969 241.195312 183.53125 239.460938 183.53125 C 237.246094 183.53125 235.957031 185.246094 235.957031 188.21875 C 235.957031 191.332031 237.285156 193.046875 239.496094 193.046875 C 241.195312 193.046875 242.148438 192.199219 242.644531 190.234375 L 244.746094 190.710938 C 244.109375 193.3125 242.5 195.0625 239.476562 195.0625 C 236.117188 195.0625 233.730469 192.746094 233.730469 188.234375 " fill-opacity="1" fill-rule="nonzero"/><path fill="#000000" d="M 245.953125 190.128906 C 245.953125 186.664062 248.238281 185.246094 250.53125 185.246094 C 252.816406 185.246094 255.117188 186.664062 255.117188 190.128906 C 255.117188 193.5625 252.816406 195.007812 250.53125 195.007812 C 248.253906 195.007812 245.953125 193.5625 245.953125 190.128906 M 252.921875 190.128906 C 252.921875 188.378906 252.179688 187.105469 250.53125 187.105469 C 248.960938 187.105469 248.148438 188.234375 248.148438 190.128906 C 248.148438 191.914062 248.871094 193.1875 250.53125 193.1875 C 252.109375 193.1875 252.921875 192.054688 252.921875 190.128906 " fill-opacity="1" fill-rule="nonzero"/><path fill="#000000" d="M 256.648438 194.816406 L 256.648438 185.425781 L 258.820312 185.425781 L 258.820312 186.714844 C 259.546875 185.917969 260.609375 185.246094 262.042969 185.246094 C 263.617188 185.246094 264.234375 185.867188 264.605469 186.785156 C 265.347656 185.972656 266.464844 185.246094 267.894531 185.246094 C 269.804688 185.246094 270.636719 186.398438 270.636719 188.078125 L 270.636719 194.816406 L 268.460938 194.816406 L 268.460938 188.625 C 268.460938 187.582031 268.160156 187.105469 267.132812 187.105469 C 266.25 187.105469 265.542969 187.601562 264.730469 188.324219 L 264.730469 194.816406 L 262.554688 194.816406 L 262.554688 188.625 C 262.554688 187.582031 262.253906 187.105469 261.226562 187.105469 C 260.359375 187.105469 259.636719 187.601562 258.820312 188.324219 L 258.820312 194.816406 L 256.648438 194.816406 " fill-opacity="1" fill-rule="nonzero"/><path fill="#000000" d="M 272.640625 198.351562 L 272.640625 185.425781 L 274.816406 185.425781 L 274.816406 186.660156 C 275.4375 185.917969 276.410156 185.246094 277.804688 185.246094 C 279.945312 185.246094 281.519531 186.855469 281.519531 190.109375 C 281.519531 193.367188 279.910156 194.957031 277.503906 194.957031 C 276.5 194.957031 275.507812 194.550781 274.816406 193.773438 L 274.816406 198.351562 L 272.640625 198.351562 M 279.34375 190.128906 C 279.34375 188.148438 278.496094 187.105469 277.097656 187.105469 C 276.195312 187.105469 275.332031 187.671875 274.816406 188.289062 L 274.816406 192.054688 C 275.402344 192.816406 276.25 193.222656 277.027344 193.222656 C 278.671875 193.222656 279.34375 192.214844 279.34375 190.128906 " fill-opacity="1" fill-rule="nonzero"/><path fill="#000000" d="M 282.484375 192.550781 C 282.484375 190.519531 284.214844 189.15625 288.601562 188.660156 L 288.601562 188.378906 C 288.601562 187.4375 288.105469 187.035156 287.0625 187.035156 C 285.753906 187.035156 284.691406 187.671875 283.898438 188.304688 L 282.835938 186.945312 C 283.84375 186.023438 285.417969 185.246094 287.363281 185.246094 C 289.875 185.246094 290.742188 186.449219 290.742188 188.640625 L 290.742188 192.515625 C 290.742188 193.648438 290.8125 194.335938 291.007812 194.8125 L 288.816406 194.8125 C 288.691406 194.425781 288.601562 194.144531 288.601562 193.613281 C 287.648438 194.585938 286.53125 194.957031 285.136719 194.957031 C 283.617188 194.957031 282.484375 194.105469 282.484375 192.550781 M 288.601562 192.195312 L 288.601562 190.128906 C 286 190.480469 284.621094 191.117188 284.621094 192.144531 C 284.621094 192.886719 285.136719 193.273438 285.933594 193.273438 C 287.042969 193.273438 287.914062 192.851562 288.601562 192.195312 " fill-opacity="1" fill-rule="nonzero"/><path fill="#000000" d="M 292.703125 194.816406 L 292.703125 185.425781 L 294.878906 185.425781 L 294.878906 186.925781 C 295.585938 186.113281 296.683594 185.246094 298.242188 185.246094 C 299.953125 185.246094 301.015625 186.128906 301.015625 187.988281 L 301.015625 194.816406 L 298.84375 194.816406 L 298.84375 188.609375 C 298.84375 187.582031 298.417969 187.050781 297.425781 187.050781 C 296.472656 187.050781 295.675781 187.527344 294.878906 188.273438 L 294.878906 194.816406 L 292.703125 194.816406 " fill-opacity="1" fill-rule="nonzero"/><g clip-path="url(#04c6d78020)"><path fill="#000000" d="M 301.542969 198.175781 L 302.039062 196.425781 C 302.304688 196.496094 302.867188 196.621094 303.628906 196.621094 C 304.410156 196.621094 304.8125 196.316406 305.117188 195.558594 L 305.378906 194.867188 L 301.773438 185.425781 L 304.035156 185.425781 L 306.460938 192.265625 L 306.496094 192.265625 L 308.898438 185.425781 L 311.058594 185.425781 L 307.058594 195.839844 C 306.441406 197.484375 305.628906 198.457031 303.769531 198.457031 C 302.65625 198.457031 302.003906 198.300781 301.542969 198.175781 " fill-opacity="1" fill-rule="nonzero"/></g><g clip-path="url(#bb2f9afc57)"><path fill="#000000" d="M 67.964844 194.792969 L 67.964844 183.757812 L 63.933594 183.757812 L 63.933594 181.707031 L 74.207031 181.707031 L 74.207031 183.757812 L 70.175781 183.757812 L 70.175781 194.792969 L 67.964844 194.792969 " fill-opacity="1" fill-rule="nonzero"/></g><path fill="#000000" d="M 75.515625 194.792969 L 75.515625 181.707031 L 77.707031 181.707031 L 77.707031 186.675781 C 78.308594 186.039062 79.441406 185.226562 81.140625 185.226562 C 82.78125 185.226562 83.84375 186.199219 83.84375 188.054688 L 83.84375 194.792969 L 81.652344 194.792969 L 81.652344 188.601562 C 81.652344 187.5625 81.210938 187.082031 80.253906 187.082031 C 79.300781 187.082031 78.503906 187.578125 77.707031 188.304688 L 77.707031 194.792969 L 75.515625 194.792969 " fill-opacity="1" fill-rule="nonzero"/><path fill="#000000" d="M 85.324219 190.105469 C 85.324219 186.535156 87.855469 185.226562 89.800781 185.226562 C 91.90625 185.226562 93.917969 186.480469 93.917969 190.300781 L 93.917969 190.816406 L 87.5 190.816406 C 87.589844 192.511719 88.632812 193.253906 90.011719 193.253906 C 91.234375 193.253906 91.941406 192.847656 92.644531 192.15625 L 93.796875 193.289062 C 92.824219 194.371094 91.53125 194.988281 89.851562 194.988281 C 87.5 194.988281 85.324219 193.558594 85.324219 190.105469 M 91.921875 189.1875 C 91.796875 187.753906 91.089844 186.992188 89.78125 186.992188 C 88.71875 186.992188 87.746094 187.59375 87.535156 189.1875 L 91.921875 189.1875 " fill-opacity="1" fill-rule="nonzero"/><g clip-path="url(#a5103c0906)"><path fill="#000000" d="M 179.28125 178.796875 C 179.28125 178.796875 179.605469 178.3125 179.878906 177.945312 C 180.371094 177.273438 181.265625 176.34375 181.9375 175.765625 C 182.148438 175.589844 182.386719 175.390625 182.386719 175.390625 C 182.386719 175.390625 182.007812 175.429688 181.792969 175.472656 C 181.28125 175.574219 180.535156 176.070312 180.15625 176.394531 C 179.539062 176.921875 178.863281 177.78125 179.167969 178.542969 C 179.214844 178.652344 179.28125 178.796875 179.28125 178.796875 M 182.71875 179.71875 C 183.691406 179.652344 184.609375 179.367188 185.457031 178.898438 C 186.292969 178.429688 187.519531 177.519531 187.394531 176.449219 C 187.355469 176.101562 187.128906 175.839844 186.84375 175.71875 C 186.46875 175.554688 186.273438 175.585938 185.796875 175.722656 C 185.453125 175.828125 185.300781 175.886719 184.972656 176.074219 C 184.015625 176.632812 182.65625 177.820312 181.921875 178.773438 C 181.75 178.996094 181.578125 179.246094 181.445312 179.417969 C 181.355469 179.519531 181.292969 179.621094 181.300781 179.644531 C 181.328125 179.753906 182.335938 179.746094 182.71875 179.71875 M 180.230469 181.542969 C 180.128906 181.648438 180.023438 181.90625 179.914062 182.09375 C 179.855469 182.191406 179.746094 182.320312 179.671875 182.371094 C 179.417969 182.558594 179.203125 182.566406 178.957031 182.351562 C 178.613281 182.046875 178.417969 181.578125 178.402344 181.121094 C 178.394531 180.917969 178.425781 180.699219 178.390625 180.527344 C 178.328125 180.246094 178.042969 179.953125 177.890625 179.683594 C 177.710938 179.359375 177.566406 178.800781 177.546875 178.441406 C 177.484375 177.316406 178.078125 176.285156 178.847656 175.464844 C 179.621094 174.640625 180.636719 173.953125 181.738281 173.488281 C 182.78125 173.046875 184.308594 172.75 185.453125 173.144531 C 185.824219 173.273438 186.34375 173.589844 186.605469 173.921875 C 186.660156 173.992188 186.707031 174.066406 186.761719 174.105469 C 186.8125 174.136719 186.945312 174.148438 187.050781 174.167969 C 187.417969 174.230469 187.945312 174.507812 188.160156 174.691406 C 188.585938 175.0625 188.824219 175.421875 188.933594 175.9375 C 189.15625 176.972656 188.554688 178.113281 187.875 178.804688 C 186.707031 180 185.554688 180.839844 184.0625 181.425781 C 183.410156 181.679688 182.386719 181.917969 181.644531 181.851562 C 181.414062 181.832031 181.175781 181.773438 180.949219 181.757812 C 180.835938 181.746094 180.417969 181.640625 180.371094 181.605469 C 180.316406 181.566406 180.246094 181.527344 180.230469 181.542969 M 144.632812 184.609375 C 145.253906 184.570312 145.636719 184.542969 146.121094 184.332031 C 146.390625 184.21875 146.699219 183.957031 146.546875 183.648438 C 146.453125 183.457031 146.125 183.390625 145.933594 183.40625 C 145.285156 183.449219 144.816406 183.925781 144.597656 184.5625 C 144.589844 184.585938 144.589844 184.609375 144.632812 184.609375 M 147.347656 183.007812 C 147.707031 183.457031 147.871094 183.988281 147.910156 184.570312 C 147.953125 185.160156 147.765625 185.722656 147.4375 186.171875 C 146.875 186.933594 145.9375 187.316406 145 187.386719 C 144.871094 187.394531 144.105469 187.417969 143.90625 187.355469 C 143.871094 187.34375 143.851562 187.328125 143.828125 187.332031 C 143.808594 187.335938 143.679688 187.867188 143.65625 188.050781 C 143.570312 188.699219 143.46875 189.15625 143.394531 189.667969 C 143.332031 190.074219 143.289062 190.511719 143.25 190.941406 C 143.039062 193.46875 143.113281 194.714844 143.320312 197.183594 C 143.335938 197.335938 143.34375 197.507812 143.320312 197.609375 C 143.265625 197.90625 143.085938 198.113281 142.796875 198.1875 C 141.925781 198.417969 141.089844 197.554688 140.664062 196.867188 C 139.667969 195.253906 139.992188 191.960938 140.28125 190.335938 C 140.398438 189.660156 140.703125 188.167969 140.917969 187.628906 C 141.03125 187.339844 141.210938 186.769531 141.195312 186.742188 C 141.183594 186.714844 140.730469 186.542969 140.3125 186.382812 C 140.152344 186.324219 139.628906 186.050781 139.402344 185.910156 C 138.9375 185.617188 138.617188 185.382812 138.296875 185.019531 C 138.199219 184.90625 137.875 184.425781 137.828125 184.316406 C 137.566406 183.726562 137.554688 183.210938 137.78125 182.585938 C 137.84375 182.425781 138.164062 181.746094 138.378906 181.765625 C 138.691406 181.792969 138.621094 182.308594 138.703125 182.574219 C 138.730469 182.664062 138.816406 182.816406 138.886719 182.898438 C 139.3125 183.40625 140.753906 183.964844 141.34375 184.140625 C 141.425781 184.167969 142.347656 184.449219 142.484375 184.386719 C 142.519531 184.371094 142.695312 184.058594 142.808594 183.867188 C 142.867188 183.761719 142.9375 183.683594 143.007812 183.605469 C 143.570312 183 144.398438 182.429688 145.222656 182.261719 C 145.585938 182.1875 146.296875 182.25 146.65625 182.453125 C 146.738281 182.5 147.007812 182.605469 147.347656 183.007812 M 138.636719 190.164062 C 138.664062 190.164062 138.703125 190.175781 138.734375 190.191406 C 139.160156 190.375 139.160156 191.132812 139.058594 191.488281 C 138.78125 192.421875 137.894531 193.386719 137.1875 193.867188 C 136.765625 194.148438 135.902344 194.550781 135.28125 194.667969 C 134.316406 194.855469 133.457031 194.597656 132.941406 193.816406 C 132.472656 193.109375 132.265625 192.230469 132.226562 191.40625 C 132.121094 189.042969 132.867188 185.589844 133.785156 183.613281 C 133.910156 183.351562 134.515625 182.117188 135.078125 181.917969 C 135.640625 181.71875 135.886719 182.378906 135.945312 182.871094 C 136.015625 183.503906 135.8125 184.339844 135.652344 185.019531 C 135.371094 186.207031 134.964844 188.0625 134.871094 188.59375 C 134.769531 189.15625 134.535156 190.363281 134.617188 190.976562 C 134.660156 191.304688 134.722656 191.46875 134.972656 191.445312 C 135.085938 191.4375 136.671875 190.707031 137.539062 190.382812 C 137.863281 190.261719 138.269531 190.132812 138.636719 190.164062 M 126.890625 189.070312 C 126.890625 189.070312 127.070312 189.074219 127.253906 189.070312 C 127.847656 189.0625 128.839844 188.953125 128.839844 188.953125 C 128.839844 188.953125 128.730469 188.082031 128.640625 187.523438 C 128.578125 187.148438 128.53125 186.917969 128.449219 186.625 C 128.414062 186.492188 128.324219 186.117188 128.226562 185.972656 C 128.210938 185.941406 128.1875 185.910156 128.1875 185.910156 C 128.1875 185.910156 127.707031 186.835938 127.4375 187.480469 C 127.226562 187.992188 127.117188 188.375 126.96875 188.683594 C 126.933594 188.757812 126.894531 188.855469 126.890625 188.941406 C 126.882812 189 126.890625 189.070312 126.890625 189.070312 M 123.710938 189.171875 C 123.710938 189.171875 123.996094 188.535156 124.214844 188.050781 C 124.449219 187.542969 125.625 185.183594 126.109375 184.515625 C 126.644531 183.769531 127.671875 182.363281 127.679688 182.320312 C 127.703125 182.164062 127.734375 181.886719 127.878906 181.667969 C 127.992188 181.492188 128.269531 181.417969 128.539062 181.402344 C 128.835938 181.382812 129.144531 181.605469 129.277344 181.851562 C 129.535156 182.316406 129.976562 183.644531 130.074219 183.960938 C 130.585938 185.730469 131.144531 189.03125 131.324219 190.730469 C 131.375 191.175781 131.519531 193.496094 131.53125 194.015625 C 131.542969 194.382812 131.53125 194.992188 131.320312 195.292969 C 131.246094 195.40625 131.09375 195.503906 130.949219 195.5 C 130.757812 195.492188 130.363281 195.222656 130.191406 195.0625 C 129.71875 194.613281 129.402344 194.15625 129.300781 193.601562 C 129.214844 193.113281 129.089844 191.722656 129.089844 191.722656 L 127.019531 191.804688 L 125.867188 191.824219 C 125.867188 191.824219 125.757812 192.09375 125.667969 192.320312 C 125.472656 192.800781 125.300781 193.28125 125.226562 193.550781 C 125.074219 194.089844 124.785156 195.167969 124.714844 195.335938 C 124.570312 195.6875 124.441406 195.890625 124.097656 195.9375 C 123.71875 195.988281 123.457031 196.015625 123.183594 195.867188 C 122.667969 195.582031 122.433594 194.984375 122.34375 194.363281 C 122.191406 193.3125 122.617188 192.460938 123.054688 191.214844 C 123.238281 190.6875 122.984375 190.511719 122.546875 189.828125 C 122.492188 189.742188 122.433594 189.648438 122.421875 189.578125 C 122.40625 189.507812 122.476562 189.328125 122.570312 189.25 C 122.601562 189.226562 122.609375 189.222656 122.664062 189.222656 L 123.710938 189.171875 M 111.882812 182.355469 C 111.882812 182.355469 111.855469 181.683594 111.800781 181.3125 C 111.753906 180.996094 111.691406 180.757812 111.542969 180.519531 C 111.375 180.253906 111.25 180.085938 110.992188 180.046875 C 110.671875 180 110.496094 180.21875 110.296875 180.53125 C 110.03125 180.957031 109.769531 181.742188 109.613281 182.242188 C 109.386719 182.949219 109.292969 183.382812 109.171875 184.1875 C 108.972656 185.511719 108.773438 187.757812 108.984375 189.285156 C 109.027344 189.546875 109.089844 189.933594 109.089844 189.933594 C 109.089844 189.933594 109.410156 189.574219 109.640625 189.324219 C 109.742188 189.214844 110.214844 188.507812 110.257812 188.4375 C 110.339844 188.292969 110.558594 187.921875 110.585938 187.84375 C 110.632812 187.761719 110.976562 187.03125 111.035156 186.859375 C 111.148438 186.53125 111.316406 186.027344 111.441406 185.625 C 111.742188 184.695312 111.6875 184.355469 111.882812 183.324219 C 111.90625 183.207031 111.925781 182.355469 111.902344 182.355469 C 111.894531 182.351562 111.882812 182.355469 111.882812 182.355469 M 109.621094 192.152344 C 109.621094 192.152344 109.746094 192.371094 109.847656 192.535156 C 110.398438 193.457031 111.277344 193.980469 112.34375 194.035156 C 113.433594 194.089844 114.832031 193.457031 115.628906 192.902344 C 117.910156 191.316406 119.109375 188.457031 119.765625 185.714844 C 120.535156 182.503906 120.570312 179.113281 119.652344 176.003906 C 119.121094 174.199219 118.082031 171.941406 116.796875 170.589844 C 116.414062 170.1875 115.828125 169.640625 115.660156 169.417969 C 115.488281 169.183594 115.445312 168.992188 115.710938 168.835938 C 115.992188 168.675781 116.605469 169.007812 116.910156 169.195312 C 118.410156 170.105469 119.390625 171.011719 120.277344 172.316406 C 120.503906 172.648438 121.402344 174.128906 121.566406 174.4375 C 122.574219 176.339844 123.09375 178 123.371094 180.097656 C 123.71875 182.773438 123.496094 185.804688 122.570312 188.484375 C 122.164062 189.660156 121.542969 190.871094 120.890625 191.890625 C 120.738281 192.132812 119.792969 193.40625 119.675781 193.53125 C 119.347656 193.871094 118.542969 194.570312 118.167969 194.871094 C 116.289062 196.382812 114.257812 197.371094 112.027344 197.097656 C 110.800781 196.945312 109.792969 196.539062 108.8125 195.742188 C 108.433594 195.433594 107.800781 194.789062 107.542969 194.328125 C 107.378906 194.035156 107.171875 193.675781 107.148438 193.671875 C 107.117188 193.664062 107.007812 193.738281 106.890625 193.824219 C 106.785156 193.894531 106.34375 194.097656 106.109375 194.1875 C 104.582031 194.757812 102.871094 194.621094 101.464844 193.710938 C 100.445312 193.050781 99.582031 191.796875 99.199219 190.660156 C 98.640625 188.972656 98.59375 187.226562 98.824219 185.433594 C 99.214844 182.390625 100.308594 179.507812 101.941406 176.957031 C 102.972656 175.347656 104.3125 173.757812 105.90625 172.621094 C 106.085938 172.492188 107.058594 171.925781 107.257812 171.832031 C 107.617188 171.664062 108.097656 171.507812 108.371094 171.804688 C 108.515625 171.957031 108.511719 172.082031 108.40625 172.28125 C 108.238281 172.597656 107.804688 173.023438 107.5625 173.277344 C 107.355469 173.5 106.179688 174.941406 105.9375 175.277344 C 105.671875 175.636719 104.476562 177.429688 104.320312 177.703125 C 102.8125 180.316406 101.613281 184.453125 101.730469 187.664062 C 101.753906 188.324219 101.851562 189.28125 102 189.902344 C 102.203125 190.742188 102.703125 191.878906 103.453125 192.40625 C 104.242188 192.964844 104.972656 192.933594 105.917969 192.558594 C 106.167969 192.457031 106.523438 192.296875 106.523438 192.296875 C 106.523438 192.296875 106.25 191.59375 106.070312 191.0625 C 105.574219 189.589844 105.375 187.242188 105.558594 185.625 C 105.707031 184.300781 106.003906 183.285156 106.601562 182.230469 C 107.082031 181.386719 107.722656 180.5625 108.527344 179.875 C 109.300781 179.214844 110.535156 178.640625 111.625 178.613281 C 112.53125 178.589844 113.464844 178.984375 113.941406 179.804688 C 114.765625 181.234375 114.820312 183.492188 114.585938 184.980469 C 114.238281 187.226562 113.074219 189.339844 111.390625 190.769531 C 110.789062 191.28125 109.621094 192.152344 109.621094 192.152344 M 181.5625 183.847656 C 181.609375 183.855469 181.679688 183.875 181.742188 183.894531 C 182.261719 184.097656 182.476562 184.582031 182.605469 185.113281 C 182.90625 186.347656 183.035156 189.078125 183.082031 190.148438 C 183.121094 190.949219 183.140625 191.742188 183.171875 192.535156 C 183.203125 193.207031 183.253906 194.101562 183.117188 194.730469 C 183.066406 194.957031 182.914062 195.21875 182.695312 195.355469 C 182.445312 195.511719 181.882812 195.523438 181.570312 195.460938 C 180.804688 195.300781 180.554688 194.808594 180.449219 194.050781 C 180.1875 192.246094 180.3125 188.695312 180.464844 187.199219 C 180.515625 186.707031 180.703125 185.121094 180.960938 184.460938 C 181.046875 184.234375 181.238281 183.78125 181.5625 183.847656 M 157.960938 186.558594 C 157.960938 186.558594 156.828125 186.640625 156.046875 186.726562 C 155.054688 186.832031 153.1875 187.15625 152.113281 187.542969 C 151.789062 187.652344 151.132812 187.929688 151.074219 188.261719 C 151.019531 188.605469 151.230469 188.875 151.46875 189.152344 C 151.605469 189.316406 152.382812 190.0625 152.601562 190.246094 C 153.515625 191.007812 155.367188 192.183594 156.734375 192.757812 C 157.203125 192.953125 157.976562 193.230469 157.976562 193.230469 C 157.976562 193.230469 157.921875 191.019531 157.929688 188.84375 C 157.9375 187.695312 157.960938 186.558594 157.960938 186.558594 M 178.75 187.4375 C 178.816406 188.03125 178.660156 189.152344 178.636719 189.300781 C 178.585938 189.644531 178.328125 190.429688 178.289062 190.527344 C 178.082031 191.003906 177.875 191.398438 177.660156 191.785156 C 177.285156 192.457031 176.402344 193.515625 175.878906 193.96875 C 173.925781 195.65625 170.90625 196.617188 168.3125 196.933594 C 166.554688 197.148438 164.535156 197.113281 162.671875 196.769531 C 162.03125 196.652344 161.078125 196.433594 161.078125 196.433594 C 161.078125 196.433594 161.078125 196.816406 161.046875 197.085938 C 161.03125 197.203125 160.941406 197.527344 160.890625 197.632812 C 160.753906 197.914062 160.53125 198.058594 160.207031 198.117188 C 159.816406 198.191406 159.402344 198.214844 159.042969 198.0625 C 158.449219 197.8125 158.238281 197.257812 158.132812 196.621094 C 158.050781 196.109375 157.964844 195.21875 157.964844 195.21875 C 157.964844 195.21875 157.519531 195.007812 157.152344 194.824219 C 156.015625 194.265625 154.9375 193.589844 153.996094 192.890625 C 153.734375 192.699219 152.613281 191.757812 152.363281 191.523438 C 151.667969 190.863281 151.042969 190.207031 150.570312 189.367188 C 150.199219 188.707031 150.09375 188.125 150.375 187.425781 C 150.761719 186.457031 152.152344 185.722656 153.105469 185.308594 C 153.808594 185 155.980469 184.289062 156.886719 184.15625 C 157.3125 184.097656 157.972656 183.980469 158.015625 183.953125 C 158.03125 183.9375 158.042969 183.929688 158.054688 183.914062 C 158.074219 183.882812 158.109375 182.921875 158.105469 182.570312 C 158.097656 182.226562 158.359375 179.953125 158.445312 179.476562 C 158.492188 179.214844 158.6875 178.214844 158.886719 177.953125 C 159.019531 177.777344 159.25 177.789062 159.441406 177.90625 C 160.476562 178.546875 160.792969 180.785156 160.867188 181.921875 C 160.914062 182.613281 160.9375 183.65625 160.9375 183.65625 C 160.9375 183.65625 162.125 183.621094 162.859375 183.640625 C 163.566406 183.660156 164.351562 183.773438 165.089844 183.890625 C 166.035156 184.039062 167.875 184.441406 168.929688 184.976562 C 169.800781 185.417969 170.613281 186.160156 170.875 186.945312 C 171.121094 187.667969 171.085938 188.164062 170.710938 188.816406 C 170.292969 189.550781 169.5 190.09375 168.695312 190.140625 C 168.453125 190.15625 167.554688 190.035156 167.277344 189.820312 C 167.167969 189.734375 167.171875 189.578125 167.253906 189.476562 C 167.28125 189.4375 167.703125 189.214844 167.953125 189.082031 C 168.078125 189.015625 168.179688 188.945312 168.277344 188.855469 C 168.484375 188.671875 168.667969 188.472656 168.648438 188.238281 C 168.621094 187.933594 168.296875 187.746094 167.992188 187.625 C 166.550781 187.050781 163.671875 186.574219 162.277344 186.492188 C 161.734375 186.460938 160.960938 186.433594 160.960938 186.433594 L 161.125 194.113281 C 161.125 194.113281 161.765625 194.238281 162.269531 194.320312 C 162.558594 194.363281 163.785156 194.472656 164.109375 194.480469 C 166.59375 194.546875 169.363281 194.324219 171.640625 193.25 C 172.640625 192.777344 173.558594 192.191406 174.253906 191.402344 C 175.167969 190.347656 175.648438 188.914062 175.519531 187.414062 C 175.382812 185.773438 174.226562 183.832031 173.308594 182.648438 C 170.875 179.515625 166.703125 176.945312 163.035156 175.4375 C 159.289062 173.894531 155.589844 173.007812 151.613281 172.859375 C 150.589844 172.824219 148.351562 172.875 147.226562 173.1875 C 147.0625 173.234375 146.898438 173.289062 146.75 173.320312 C 146.628906 173.351562 146.445312 173.429688 146.394531 173.46875 C 146.367188 173.492188 146.335938 173.523438 146.335938 173.523438 C 146.335938 173.523438 146.40625 173.5625 146.472656 173.589844 C 146.59375 173.644531 147.097656 173.671875 147.359375 173.722656 C 147.589844 173.765625 147.835938 173.890625 147.929688 174.0625 C 148.019531 174.222656 148.035156 174.351562 147.921875 174.484375 C 147.667969 174.796875 146.703125 174.742188 146.28125 174.679688 C 145.839844 174.605469 145.292969 174.472656 145.191406 174.089844 C 145.074219 173.636719 145.285156 173.195312 145.519531 172.78125 C 145.984375 171.964844 146.652344 171.535156 147.632812 171.269531 C 149.019531 170.890625 150.773438 170.621094 152.082031 170.570312 C 155.050781 170.460938 157.859375 170.976562 160.734375 171.851562 C 162.382812 172.347656 164.539062 173.183594 166.113281 173.945312 C 167.242188 174.488281 169.027344 175.492188 170.03125 176.148438 C 170.347656 176.359375 172.195312 177.714844 172.480469 177.953125 C 173.082031 178.445312 173.867188 179.148438 174.429688 179.710938 C 175.53125 180.800781 176.894531 182.464844 177.558594 183.789062 C 177.71875 184.109375 177.84375 184.417969 178.046875 184.785156 C 178.117188 184.910156 178.421875 185.664062 178.472656 185.882812 C 178.523438 186.097656 178.59375 186.414062 178.605469 186.425781 C 178.621094 186.542969 178.761719 187.1875 178.75 187.4375 Z M 191.539062 187.996094 C 191.59375 188 191.605469 188.003906 191.65625 188.011719 C 192.566406 188.136719 193.457031 188.296875 194.136719 188.605469 C 194.769531 188.882812 195.144531 189.238281 195.480469 189.867188 C 195.996094 190.824219 196.03125 192.160156 195.5625 193.171875 C 195.214844 193.925781 194.453125 194.554688 193.757812 194.890625 C 193.03125 195.242188 192.324219 195.410156 191.503906 195.503906 C 190.078125 195.660156 188.535156 195.363281 187.25 194.742188 C 186.488281 194.371094 185.558594 193.730469 185.089844 192.90625 C 184.746094 192.300781 184.757812 191.515625 185.175781 190.945312 C 185.84375 190.03125 187.273438 189.828125 188.351562 189.867188 C 189.175781 189.898438 190.652344 190.152344 191.433594 190.429688 C 191.652344 190.507812 192.449219 190.820312 192.585938 190.960938 C 192.683594 191.058594 192.75 191.203125 192.707031 191.335938 C 192.527344 191.882812 191.203125 192.167969 190.820312 192.226562 C 189.796875 192.382812 189.265625 191.996094 188.101562 191.535156 C 187.8125 191.425781 187.425781 191.300781 187.128906 191.273438 C 186.601562 191.222656 185.964844 191.367188 185.863281 191.945312 C 185.8125 192.242188 186.160156 192.519531 186.425781 192.636719 C 187.050781 192.90625 187.558594 193.003906 188.175781 193.011719 C 189.988281 193.039062 192.03125 192.742188 193.515625 191.691406 C 193.722656 191.546875 193.917969 191.332031 193.921875 191.0625 C 193.921875 191.03125 193.875 190.742188 193.78125 190.710938 C 193.765625 190.707031 193.753906 190.710938 193.742188 190.710938 C 193.707031 190.699219 193.648438 190.605469 193.601562 190.546875 C 193.496094 190.414062 193.066406 190.230469 192.980469 190.195312 C 191.980469 189.777344 190.132812 189.574219 189.175781 189.496094 C 188.179688 189.410156 186.605469 189.277344 186.230469 189.222656 C 185.839844 189.167969 185.417969 189.089844 185.082031 188.9375 C 184.742188 188.785156 184.414062 188.445312 184.3125 188.066406 C 184.140625 187.386719 184.363281 186.546875 184.742188 186 C 185.734375 184.574219 188.058594 184.035156 189.796875 183.820312 C 191.476562 183.609375 194.195312 183.609375 195.84375 184.488281 C 196.101562 184.625 196.230469 184.75 196.175781 185.023438 C 196.070312 185.535156 195.683594 185.867188 195.21875 186.011719 C 194.730469 186.167969 193.71875 186.226562 193.273438 186.253906 C 191.285156 186.367188 188.878906 186.308594 186.984375 186.824219 C 186.835938 186.867188 186.578125 186.933594 186.492188 187.027344 C 186.195312 187.351562 187.042969 187.441406 187.226562 187.480469 C 187.28125 187.492188 187.292969 187.496094 187.347656 187.5 L 191.539062 187.996094 M 197.75 195.441406 C 196.945312 195.148438 196.761719 193.851562 196.726562 193.191406 C 196.597656 191.054688 197.164062 188.082031 197.878906 186.078125 C 198.085938 185.507812 198.378906 184.578125 199.019531 184.628906 C 199.457031 184.667969 199.769531 185.007812 200.015625 185.355469 C 200.648438 186.242188 201.476562 187.445312 202.023438 188.285156 C 202.636719 189.222656 203.226562 190.171875 203.808594 191.027344 C 203.878906 191.128906 203.945312 191.230469 204.023438 191.296875 C 204.128906 191.378906 204.222656 191.382812 204.265625 191.304688 C 204.285156 191.277344 204.246094 190.195312 204.21875 189.980469 C 204.175781 189.632812 204.15625 189.355469 204.117188 189.058594 C 204.007812 188.195312 203.734375 186.980469 203.519531 186.15625 C 203.28125 185.238281 202.988281 184.277344 202.773438 183.386719 C 202.703125 183.097656 202.636719 182.808594 202.640625 182.53125 C 202.644531 182.132812 202.898438 181.914062 203.3125 182.0625 C 204.128906 182.351562 205.214844 184.125 205.53125 184.742188 C 205.636719 184.949219 206.0625 186.007812 206.160156 186.304688 C 206.496094 187.320312 206.703125 188.285156 206.796875 189.394531 C 206.886719 190.46875 206.8125 192.039062 206.355469 193.097656 C 206.1875 193.488281 205.84375 194.015625 205.558594 194.28125 C 205.113281 194.695312 204.21875 195.019531 203.605469 194.667969 C 202.933594 194.285156 201.828125 192.371094 201.640625 192.046875 C 201 190.925781 199.894531 188.738281 199.726562 188.492188 C 199.6875 188.4375 199.636719 188.386719 199.554688 188.359375 C 199.488281 188.339844 199.460938 188.476562 199.445312 188.5625 C 199.335938 189.199219 199.261719 192.183594 199.257812 192.265625 C 199.242188 192.765625 199.214844 193.996094 199.070312 194.605469 C 198.976562 195 198.878906 195.324219 198.515625 195.492188 C 198.257812 195.605469 198.0625 195.558594 197.75 195.441406 M 208.828125 195.253906 C 208.742188 195.1875 208.601562 195.042969 208.5 194.925781 C 208.484375 194.910156 208.195312 194.476562 208.136719 194.34375 C 208.085938 194.230469 208.046875 194.144531 208.011719 194.050781 C 207.75 193.371094 207.753906 192.703125 207.902344 191.972656 C 208.035156 191.292969 208.164062 191.261719 208.511719 190.328125 C 208.535156 190.277344 208.546875 190.230469 208.554688 190.175781 C 208.566406 190.046875 208.359375 189.183594 208.347656 188.910156 C 208.332031 188.484375 208.660156 188.1875 209.210938 188.128906 C 209.261719 188.125 209.296875 188.125 209.335938 188.113281 C 209.554688 188.0625 209.695312 187.640625 209.8125 187.304688 C 209.980469 186.832031 210.242188 186.113281 210.242188 186.113281 C 210.242188 186.113281 209.546875 185.953125 209.175781 185.8125 C 208.761719 185.65625 208.449219 185.453125 208.261719 185.070312 C 208.035156 184.625 208.183594 184.378906 208.648438 184.234375 C 208.820312 184.179688 210.167969 183.921875 210.589844 183.863281 C 211.121094 183.785156 211.621094 183.71875 212.125 183.65625 C 212.566406 183.601562 214.582031 183.367188 215.222656 183.386719 C 216.199219 183.414062 216.832031 183.816406 217.40625 184.644531 C 217.710938 185.085938 217.921875 185.609375 217.457031 185.894531 C 216.746094 186.328125 214.4375 186.359375 214.015625 186.363281 C 213.34375 186.371094 212.410156 186.359375 212.410156 186.359375 L 211.941406 187.929688 C 211.941406 187.929688 213.59375 187.910156 214.523438 187.90625 C 214.75 187.90625 214.976562 187.921875 215.101562 187.945312 C 215.574219 188.050781 215.738281 188.417969 215.757812 188.941406 C 215.785156 189.558594 215.667969 189.839844 215.179688 189.921875 C 214.925781 189.960938 212.085938 189.980469 211.699219 190.023438 C 211.460938 190.050781 211.207031 190.089844 211.207031 190.089844 C 211.207031 190.089844 211 190.625 210.824219 191.164062 C 210.644531 191.726562 210.488281 192.300781 210.488281 192.300781 C 210.488281 192.300781 210.632812 192.308594 210.753906 192.308594 C 210.953125 192.308594 211.15625 192.28125 211.316406 192.253906 C 212.179688 192.09375 213.46875 191.902344 214.527344 191.738281 C 215.09375 191.648438 215.378906 191.605469 215.679688 191.984375 C 215.9375 192.316406 216.070312 192.59375 216.089844 192.996094 C 216.105469 193.378906 215.816406 193.628906 215.464844 193.898438 C 214.347656 194.75 212.4375 195.675781 211.015625 195.835938 C 210.355469 195.910156 210.195312 195.835938 209.621094 195.6875 C 209.511719 195.660156 209.113281 195.472656 209.117188 195.453125 C 209.117188 195.453125 208.902344 195.308594 208.828125 195.253906 Z M 226.78125 187.363281 C 226.050781 187.972656 225.101562 189.222656 224.652344 189.875 C 224.050781 190.734375 223.480469 191.71875 222.9375 192.480469 C 222.820312 192.652344 222.472656 193.265625 222.484375 193.289062 C 222.507812 193.332031 222.859375 193.316406 223.222656 193.257812 C 223.992188 193.125 225.042969 192.585938 225.601562 192.136719 C 226.457031 191.453125 227.050781 190.515625 227.328125 189.417969 C 227.453125 188.917969 227.519531 187.871094 227.164062 187.402344 C 227.09375 187.316406 226.917969 187.246094 226.78125 187.363281 M 220.96875 196.339844 C 220.96875 196.339844 220.734375 197.019531 220.566406 197.550781 C 220.273438 198.472656 219.625 200.953125 219.476562 201.722656 C 219.25 202.867188 218.609375 205.867188 218.578125 205.929688 C 218.535156 206.015625 218.503906 206.042969 218.394531 206.113281 C 218.132812 206.269531 218.027344 206.21875 217.707031 206.046875 C 217.292969 205.828125 216.925781 205.605469 216.617188 205.195312 C 215.992188 204.382812 216.140625 202.855469 216.261719 201.957031 C 216.691406 198.820312 217.125 197.441406 218.320312 194.320312 C 218.339844 194.265625 218.339844 194.253906 218.3125 194.207031 C 217.941406 193.414062 217.742188 192.457031 217.742188 191.683594 C 217.746094 189.238281 219.148438 186.816406 220.726562 184.871094 C 220.847656 184.722656 221.621094 183.796875 221.972656 183.816406 C 222.324219 183.832031 222.382812 184.242188 222.328125 184.585938 C 222.152344 185.714844 221.355469 186.867188 220.8125 187.820312 C 220.199219 188.886719 220.070312 189.324219 219.769531 190.300781 C 219.722656 190.453125 219.601562 191.167969 219.605469 191.257812 C 219.621094 191.523438 219.675781 191.851562 219.675781 191.851562 C 219.675781 191.851562 220.671875 190.460938 221.328125 189.601562 C 221.6875 189.128906 221.945312 188.816406 222.242188 188.480469 C 222.546875 188.140625 223.710938 186.925781 224.046875 186.609375 C 224.75 185.933594 225.066406 185.65625 225.828125 185.257812 C 226.433594 184.945312 226.976562 184.867188 227.5625 185.257812 C 228.5 185.871094 228.90625 187.171875 229.011719 188.222656 C 229.132812 189.480469 228.878906 190.898438 228.320312 191.976562 C 227.664062 193.261719 226.765625 194.1875 225.542969 194.996094 C 224.292969 195.824219 222.828125 196.386719 221.386719 196.355469 C 221.195312 196.347656 220.96875 196.339844 220.96875 196.339844 " fill-opacity="1" fill-rule="nonzero"/></g></svg>